<?xml version="1.0" encoding="UTF-8"?>
<svg xmlns="http://www.w3.org/2000/svg" xmlns:xlink="http://www.w3.org/1999/xlink" width="468pt" height="289pt" viewBox="0 0 468 289" version="1.1">
<defs>
<g>
<symbol overflow="visible" id="0220bf7f-a88b-4159-9104-d7bd7c9c95dd">
<path style="stroke:none;" d="M 0.3125 0 L 0.3125 -6.875 L 5.765625 -6.875 L 5.765625 0 Z M 4.90625 -0.859375 L 4.90625 -6.015625 L 1.171875 -6.015625 L 1.171875 -0.859375 Z "/>
</symbol>
<symbol overflow="visible" id="87a35649-25df-4c36-af6d-22bbe5b80aab">
<path style="stroke:none;" d="M 0.921875 -4.75 L 0.921875 -5.390625 C 1.523438 -5.453125 1.945312 -5.550781 2.1875 -5.6875 C 2.425781 -5.832031 2.609375 -6.164062 2.734375 -6.6875 L 3.390625 -6.6875 L 3.390625 0 L 2.5 0 L 2.5 -4.75 Z "/>
</symbol>
<symbol overflow="visible" id="40a15725-7e3a-466e-8752-543e87934dde">
<path style="stroke:none;" d="M 2.59375 -6.703125 C 3.457031 -6.703125 4.085938 -6.347656 4.484375 -5.640625 C 4.773438 -5.085938 4.921875 -4.328125 4.921875 -3.359375 C 4.921875 -2.453125 4.785156 -1.695312 4.515625 -1.09375 C 4.128906 -0.238281 3.488281 0.1875 2.59375 0.1875 C 1.78125 0.1875 1.179688 -0.160156 0.796875 -0.859375 C 0.460938 -1.453125 0.296875 -2.238281 0.296875 -3.21875 C 0.296875 -3.976562 0.394531 -4.632812 0.59375 -5.1875 C 0.957031 -6.195312 1.625 -6.703125 2.59375 -6.703125 Z M 2.578125 -0.578125 C 3.015625 -0.578125 3.363281 -0.769531 3.625 -1.15625 C 3.882812 -1.550781 4.015625 -2.273438 4.015625 -3.328125 C 4.015625 -4.085938 3.921875 -4.710938 3.734375 -5.203125 C 3.546875 -5.703125 3.179688 -5.953125 2.640625 -5.953125 C 2.148438 -5.953125 1.789062 -5.71875 1.5625 -5.25 C 1.332031 -4.78125 1.21875 -4.09375 1.21875 -3.1875 C 1.21875 -2.5 1.289062 -1.945312 1.4375 -1.53125 C 1.65625 -0.894531 2.035156 -0.578125 2.578125 -0.578125 Z "/>
</symbol>
<symbol overflow="visible" id="de72ccd9-aa53-46ef-bdc8-f0d987b0fbe0">
<path style="stroke:none;" d="M 0.296875 0 C 0.328125 -0.570312 0.445312 -1.070312 0.65625 -1.5 C 0.863281 -1.9375 1.269531 -2.328125 1.875 -2.671875 L 2.765625 -3.1875 C 3.171875 -3.425781 3.457031 -3.628906 3.625 -3.796875 C 3.875 -4.054688 4 -4.351562 4 -4.6875 C 4 -5.070312 3.878906 -5.378906 3.640625 -5.609375 C 3.410156 -5.835938 3.101562 -5.953125 2.71875 -5.953125 C 2.132812 -5.953125 1.734375 -5.734375 1.515625 -5.296875 C 1.398438 -5.066406 1.335938 -4.742188 1.328125 -4.328125 L 0.46875 -4.328125 C 0.476562 -4.910156 0.582031 -5.382812 0.78125 -5.75 C 1.144531 -6.40625 1.789062 -6.734375 2.71875 -6.734375 C 3.488281 -6.734375 4.050781 -6.523438 4.40625 -6.109375 C 4.757812 -5.691406 4.9375 -5.226562 4.9375 -4.71875 C 4.9375 -4.1875 4.75 -3.726562 4.375 -3.34375 C 4.15625 -3.125 3.757812 -2.851562 3.1875 -2.53125 L 2.546875 -2.1875 C 2.242188 -2.019531 2.003906 -1.859375 1.828125 -1.703125 C 1.515625 -1.429688 1.316406 -1.128906 1.234375 -0.796875 L 4.90625 -0.796875 L 4.90625 0 Z "/>
</symbol>
<symbol overflow="visible" id="fb4b61fa-c14d-4852-bd66-fed444a9a127">
<path style="stroke:none;" d="M 2.484375 0.1875 C 1.691406 0.1875 1.117188 -0.03125 0.765625 -0.46875 C 0.410156 -0.90625 0.234375 -1.4375 0.234375 -2.0625 L 1.109375 -2.0625 C 1.148438 -1.625 1.234375 -1.304688 1.359375 -1.109375 C 1.578125 -0.753906 1.96875 -0.578125 2.53125 -0.578125 C 2.976562 -0.578125 3.335938 -0.695312 3.609375 -0.9375 C 3.878906 -1.175781 4.015625 -1.484375 4.015625 -1.859375 C 4.015625 -2.316406 3.867188 -2.640625 3.578125 -2.828125 C 3.296875 -3.015625 2.90625 -3.109375 2.40625 -3.109375 C 2.351562 -3.109375 2.296875 -3.101562 2.234375 -3.09375 C 2.179688 -3.09375 2.125 -3.09375 2.0625 -3.09375 L 2.0625 -3.84375 C 2.144531 -3.832031 2.21875 -3.820312 2.28125 -3.8125 C 2.34375 -3.8125 2.40625 -3.8125 2.46875 -3.8125 C 2.789062 -3.8125 3.050781 -3.863281 3.25 -3.96875 C 3.601562 -4.144531 3.78125 -4.457031 3.78125 -4.90625 C 3.78125 -5.238281 3.660156 -5.492188 3.421875 -5.671875 C 3.191406 -5.859375 2.914062 -5.953125 2.59375 -5.953125 C 2.03125 -5.953125 1.644531 -5.765625 1.4375 -5.390625 C 1.3125 -5.179688 1.242188 -4.882812 1.234375 -4.5 L 0.390625 -4.5 C 0.390625 -5 0.492188 -5.425781 0.703125 -5.78125 C 1.046875 -6.40625 1.648438 -6.71875 2.515625 -6.71875 C 3.191406 -6.71875 3.71875 -6.5625 4.09375 -6.25 C 4.46875 -5.945312 4.65625 -5.507812 4.65625 -4.9375 C 4.65625 -4.519531 4.546875 -4.1875 4.328125 -3.9375 C 4.191406 -3.78125 4.015625 -3.65625 3.796875 -3.5625 C 4.148438 -3.46875 4.425781 -3.28125 4.625 -3 C 4.820312 -2.71875 4.921875 -2.378906 4.921875 -1.984375 C 4.921875 -1.347656 4.707031 -0.828125 4.28125 -0.421875 C 3.863281 -0.015625 3.265625 0.1875 2.484375 0.1875 Z "/>
</symbol>
<symbol overflow="visible" id="04aece9b-5640-42fe-a73b-b5824364e50c">
<path style="stroke:none;" d="M 1.1875 -1.703125 C 1.238281 -1.222656 1.460938 -0.894531 1.859375 -0.71875 C 2.054688 -0.625 2.285156 -0.578125 2.546875 -0.578125 C 3.046875 -0.578125 3.414062 -0.734375 3.65625 -1.046875 C 3.894531 -1.367188 4.015625 -1.722656 4.015625 -2.109375 C 4.015625 -2.578125 3.867188 -2.9375 3.578125 -3.1875 C 3.296875 -3.445312 2.957031 -3.578125 2.5625 -3.578125 C 2.269531 -3.578125 2.019531 -3.519531 1.8125 -3.40625 C 1.601562 -3.289062 1.425781 -3.132812 1.28125 -2.9375 L 0.546875 -2.984375 L 1.0625 -6.59375 L 4.546875 -6.59375 L 4.546875 -5.78125 L 1.703125 -5.78125 L 1.40625 -3.921875 C 1.5625 -4.035156 1.710938 -4.125 1.859375 -4.1875 C 2.109375 -4.289062 2.394531 -4.34375 2.71875 -4.34375 C 3.332031 -4.34375 3.851562 -4.140625 4.28125 -3.734375 C 4.707031 -3.335938 4.921875 -2.835938 4.921875 -2.234375 C 4.921875 -1.597656 4.722656 -1.035156 4.328125 -0.546875 C 3.941406 -0.0664062 3.320312 0.171875 2.46875 0.171875 C 1.914062 0.171875 1.429688 0.0195312 1.015625 -0.28125 C 0.597656 -0.59375 0.363281 -1.066406 0.3125 -1.703125 Z "/>
</symbol>
<symbol overflow="visible" id="9aaae247-c09d-4648-9134-c9524c7e6424">
<path style="stroke:none;" d="M 3.171875 -2.375 L 3.171875 -5.421875 L 1.015625 -2.375 Z M 3.1875 0 L 3.1875 -1.640625 L 0.25 -1.640625 L 0.25 -2.46875 L 3.3125 -6.734375 L 4.03125 -6.734375 L 4.03125 -2.375 L 5.015625 -2.375 L 5.015625 -1.640625 L 4.03125 -1.640625 L 4.03125 0 Z "/>
</symbol>
<symbol overflow="visible" id="2f936e51-2257-4ad1-a67c-6d6c647f55ef">
<path style="stroke:none;" d="M 2.8125 -6.734375 C 3.5625 -6.734375 4.082031 -6.535156 4.375 -6.140625 C 4.664062 -5.753906 4.8125 -5.359375 4.8125 -4.953125 L 3.984375 -4.953125 C 3.929688 -5.210938 3.851562 -5.421875 3.75 -5.578125 C 3.539062 -5.859375 3.226562 -6 2.8125 -6 C 2.34375 -6 1.96875 -5.78125 1.6875 -5.34375 C 1.414062 -4.90625 1.265625 -4.28125 1.234375 -3.46875 C 1.421875 -3.75 1.664062 -3.960938 1.96875 -4.109375 C 2.226562 -4.234375 2.523438 -4.296875 2.859375 -4.296875 C 3.421875 -4.296875 3.910156 -4.113281 4.328125 -3.75 C 4.742188 -3.394531 4.953125 -2.863281 4.953125 -2.15625 C 4.953125 -1.539062 4.753906 -1 4.359375 -0.53125 C 3.960938 -0.0625 3.398438 0.171875 2.671875 0.171875 C 2.046875 0.171875 1.503906 -0.0625 1.046875 -0.53125 C 0.585938 -1.007812 0.359375 -1.816406 0.359375 -2.953125 C 0.359375 -3.785156 0.460938 -4.488281 0.671875 -5.0625 C 1.054688 -6.175781 1.769531 -6.734375 2.8125 -6.734375 Z M 2.75 -0.578125 C 3.1875 -0.578125 3.515625 -0.722656 3.734375 -1.015625 C 3.960938 -1.316406 4.078125 -1.671875 4.078125 -2.078125 C 4.078125 -2.421875 3.976562 -2.75 3.78125 -3.0625 C 3.582031 -3.375 3.222656 -3.53125 2.703125 -3.53125 C 2.335938 -3.53125 2.019531 -3.410156 1.75 -3.171875 C 1.476562 -2.929688 1.34375 -2.566406 1.34375 -2.078125 C 1.34375 -1.648438 1.460938 -1.289062 1.703125 -1 C 1.953125 -0.71875 2.300781 -0.578125 2.75 -0.578125 Z "/>
</symbol>
<symbol overflow="visible" id="3a072e32-42c5-4179-9bb1-d0343332c23c">
<path style="stroke:none;" d="M 2.609375 -3.890625 C 2.984375 -3.890625 3.273438 -3.992188 3.484375 -4.203125 C 3.691406 -4.410156 3.796875 -4.660156 3.796875 -4.953125 C 3.796875 -5.203125 3.691406 -5.429688 3.484375 -5.640625 C 3.285156 -5.847656 2.984375 -5.953125 2.578125 -5.953125 C 2.171875 -5.953125 1.875 -5.847656 1.6875 -5.640625 C 1.507812 -5.429688 1.421875 -5.1875 1.421875 -4.90625 C 1.421875 -4.59375 1.535156 -4.34375 1.765625 -4.15625 C 2.003906 -3.976562 2.285156 -3.890625 2.609375 -3.890625 Z M 2.65625 -0.578125 C 3.050781 -0.578125 3.375 -0.679688 3.625 -0.890625 C 3.882812 -1.097656 4.015625 -1.414062 4.015625 -1.84375 C 4.015625 -2.269531 3.878906 -2.59375 3.609375 -2.8125 C 3.347656 -3.039062 3.007812 -3.15625 2.59375 -3.15625 C 2.195312 -3.15625 1.867188 -3.039062 1.609375 -2.8125 C 1.359375 -2.582031 1.234375 -2.265625 1.234375 -1.859375 C 1.234375 -1.515625 1.347656 -1.210938 1.578125 -0.953125 C 1.816406 -0.703125 2.175781 -0.578125 2.65625 -0.578125 Z M 1.46875 -3.578125 C 1.226562 -3.671875 1.039062 -3.785156 0.90625 -3.921875 C 0.664062 -4.171875 0.546875 -4.5 0.546875 -4.90625 C 0.546875 -5.40625 0.722656 -5.832031 1.078125 -6.1875 C 1.441406 -6.550781 1.957031 -6.734375 2.625 -6.734375 C 3.269531 -6.734375 3.773438 -6.5625 4.140625 -6.21875 C 4.503906 -5.875 4.6875 -5.476562 4.6875 -5.03125 C 4.6875 -4.613281 4.582031 -4.273438 4.375 -4.015625 C 4.25 -3.867188 4.0625 -3.722656 3.8125 -3.578125 C 4.09375 -3.453125 4.3125 -3.304688 4.46875 -3.140625 C 4.769531 -2.828125 4.921875 -2.421875 4.921875 -1.921875 C 4.921875 -1.335938 4.722656 -0.835938 4.328125 -0.421875 C 3.929688 -0.015625 3.367188 0.1875 2.640625 0.1875 C 1.984375 0.1875 1.429688 0.0078125 0.984375 -0.34375 C 0.535156 -0.695312 0.3125 -1.210938 0.3125 -1.890625 C 0.3125 -2.285156 0.40625 -2.625 0.59375 -2.90625 C 0.789062 -3.195312 1.082031 -3.421875 1.46875 -3.578125 Z "/>
</symbol>
<symbol overflow="visible" id="541a3fae-3363-4012-aaf9-d4346cb90741">
<path style="stroke:none;" d="M 0.390625 0 L 0.390625 -8.609375 L 7.21875 -8.609375 L 7.21875 0 Z M 6.140625 -1.078125 L 6.140625 -7.53125 L 1.46875 -7.53125 L 1.46875 -1.078125 Z "/>
</symbol>
<symbol overflow="visible" id="6b065d06-6ed3-4bb8-9184-49e8a911aeb5">
<path style="stroke:none;" d="M 0.78125 -6.28125 L 1.8125 -6.28125 L 1.8125 -5.390625 C 2.0625 -5.691406 2.289062 -5.914062 2.5 -6.0625 C 2.84375 -6.300781 3.238281 -6.421875 3.6875 -6.421875 C 4.1875 -6.421875 4.585938 -6.296875 4.890625 -6.046875 C 5.054688 -5.910156 5.210938 -5.703125 5.359375 -5.421875 C 5.585938 -5.765625 5.859375 -6.015625 6.171875 -6.171875 C 6.492188 -6.335938 6.851562 -6.421875 7.25 -6.421875 C 8.09375 -6.421875 8.664062 -6.113281 8.96875 -5.5 C 9.132812 -5.175781 9.21875 -4.734375 9.21875 -4.171875 L 9.21875 0 L 8.125 0 L 8.125 -4.359375 C 8.125 -4.773438 8.019531 -5.0625 7.8125 -5.21875 C 7.601562 -5.375 7.347656 -5.453125 7.046875 -5.453125 C 6.628906 -5.453125 6.269531 -5.3125 5.96875 -5.03125 C 5.675781 -4.757812 5.53125 -4.300781 5.53125 -3.65625 L 5.53125 0 L 4.453125 0 L 4.453125 -4.09375 C 4.453125 -4.519531 4.398438 -4.832031 4.296875 -5.03125 C 4.140625 -5.320312 3.84375 -5.46875 3.40625 -5.46875 C 3.007812 -5.46875 2.644531 -5.3125 2.3125 -5 C 1.988281 -4.695312 1.828125 -4.140625 1.828125 -3.328125 L 1.828125 0 L 0.78125 0 Z "/>
</symbol>
<symbol overflow="visible" id="2982f6ae-a1cf-4e5f-bc1d-b29ef965e3fe">
<path style="stroke:none;" d="M 3.421875 -0.703125 C 3.910156 -0.703125 4.316406 -0.910156 4.640625 -1.328125 C 4.972656 -1.742188 5.140625 -2.359375 5.140625 -3.171875 C 5.140625 -3.671875 5.066406 -4.101562 4.921875 -4.46875 C 4.648438 -5.15625 4.148438 -5.5 3.421875 -5.5 C 2.691406 -5.5 2.191406 -5.132812 1.921875 -4.40625 C 1.773438 -4.019531 1.703125 -3.523438 1.703125 -2.921875 C 1.703125 -2.429688 1.773438 -2.019531 1.921875 -1.6875 C 2.191406 -1.03125 2.691406 -0.703125 3.421875 -0.703125 Z M 0.6875 -6.25 L 1.71875 -6.25 L 1.71875 -5.421875 C 1.925781 -5.703125 2.15625 -5.921875 2.40625 -6.078125 C 2.757812 -6.304688 3.175781 -6.421875 3.65625 -6.421875 C 4.375 -6.421875 4.976562 -6.148438 5.46875 -5.609375 C 5.96875 -5.066406 6.21875 -4.289062 6.21875 -3.28125 C 6.21875 -1.90625 5.859375 -0.925781 5.140625 -0.34375 C 4.691406 0.03125 4.164062 0.21875 3.5625 0.21875 C 3.09375 0.21875 2.695312 0.113281 2.375 -0.09375 C 2.1875 -0.21875 1.976562 -0.421875 1.75 -0.703125 L 1.75 2.5 L 0.6875 2.5 Z "/>
</symbol>
<symbol overflow="visible" id="00b39c3e-9c9b-4e2d-89e9-612de7135684">
<path style="stroke:none;" d="M 2.984375 -6.390625 C 3.484375 -6.390625 3.914062 -6.269531 4.28125 -6.03125 C 4.476562 -5.882812 4.679688 -5.679688 4.890625 -5.421875 L 4.890625 -6.21875 L 5.859375 -6.21875 L 5.859375 -0.515625 C 5.859375 0.285156 5.742188 0.914062 5.515625 1.375 C 5.078125 2.226562 4.25 2.65625 3.03125 2.65625 C 2.351562 2.65625 1.785156 2.503906 1.328125 2.203125 C 0.867188 1.898438 0.609375 1.425781 0.546875 0.78125 L 1.625 0.78125 C 1.675781 1.0625 1.773438 1.28125 1.921875 1.4375 C 2.160156 1.664062 2.535156 1.78125 3.046875 1.78125 C 3.859375 1.78125 4.390625 1.492188 4.640625 0.921875 C 4.785156 0.585938 4.851562 -0.0078125 4.84375 -0.875 C 4.632812 -0.550781 4.378906 -0.3125 4.078125 -0.15625 C 3.785156 0 3.394531 0.078125 2.90625 0.078125 C 2.226562 0.078125 1.632812 -0.160156 1.125 -0.640625 C 0.613281 -1.128906 0.359375 -1.929688 0.359375 -3.046875 C 0.359375 -4.097656 0.613281 -4.914062 1.125 -5.5 C 1.644531 -6.09375 2.265625 -6.390625 2.984375 -6.390625 Z M 4.890625 -3.171875 C 4.890625 -3.941406 4.726562 -4.515625 4.40625 -4.890625 C 4.082031 -5.265625 3.675781 -5.453125 3.1875 -5.453125 C 2.4375 -5.453125 1.925781 -5.101562 1.65625 -4.40625 C 1.507812 -4.039062 1.4375 -3.554688 1.4375 -2.953125 C 1.4375 -2.242188 1.578125 -1.703125 1.859375 -1.328125 C 2.148438 -0.960938 2.539062 -0.78125 3.03125 -0.78125 C 3.789062 -0.78125 4.320312 -1.125 4.625 -1.8125 C 4.800781 -2.195312 4.890625 -2.648438 4.890625 -3.171875 Z M 3.109375 -6.421875 Z "/>
</symbol>
<symbol overflow="visible" id="f616d9ae-9006-4766-8afe-64b66b5ad71b">
<path style="stroke:none;" d="M 0 -0.390625 L -8.609375 -0.390625 L -8.609375 -7.21875 L 0 -7.21875 Z M -1.078125 -6.140625 L -7.53125 -6.140625 L -7.53125 -1.46875 L -1.078125 -1.46875 Z "/>
</symbol>
<symbol overflow="visible" id="45e057ee-4ef5-41c2-ae58-98fb5039ee29">
<path style="stroke:none;" d="M -8.640625 -0.78125 L -8.640625 -1.828125 L -5.421875 -1.828125 C -5.742188 -2.078125 -5.96875 -2.300781 -6.09375 -2.5 C -6.3125 -2.84375 -6.421875 -3.269531 -6.421875 -3.78125 C -6.421875 -4.6875 -6.101562 -5.300781 -5.46875 -5.625 C -5.125 -5.800781 -4.644531 -5.890625 -4.03125 -5.890625 L 0 -5.890625 L 0 -4.8125 L -3.953125 -4.8125 C -4.410156 -4.8125 -4.75 -4.75 -4.96875 -4.625 C -5.3125 -4.4375 -5.484375 -4.078125 -5.484375 -3.546875 C -5.484375 -3.109375 -5.332031 -2.710938 -5.03125 -2.359375 C -4.726562 -2.003906 -4.160156 -1.828125 -3.328125 -1.828125 L 0 -1.828125 L 0 -0.78125 Z "/>
</symbol>
<symbol overflow="visible" id="d6fb0de9-1fdb-4c7e-8fd9-68f652440cc1">
<path style="stroke:none;" d="M -0.703125 -3.421875 C -0.703125 -3.910156 -0.910156 -4.316406 -1.328125 -4.640625 C -1.742188 -4.972656 -2.359375 -5.140625 -3.171875 -5.140625 C -3.671875 -5.140625 -4.101562 -5.066406 -4.46875 -4.921875 C -5.15625 -4.648438 -5.5 -4.148438 -5.5 -3.421875 C -5.5 -2.691406 -5.132812 -2.191406 -4.40625 -1.921875 C -4.019531 -1.773438 -3.523438 -1.703125 -2.921875 -1.703125 C -2.429688 -1.703125 -2.019531 -1.773438 -1.6875 -1.921875 C -1.03125 -2.191406 -0.703125 -2.691406 -0.703125 -3.421875 Z M -6.25 -0.6875 L -6.25 -1.71875 L -5.421875 -1.71875 C -5.703125 -1.925781 -5.921875 -2.15625 -6.078125 -2.40625 C -6.304688 -2.757812 -6.421875 -3.175781 -6.421875 -3.65625 C -6.421875 -4.375 -6.148438 -4.976562 -5.609375 -5.46875 C -5.066406 -5.96875 -4.289062 -6.21875 -3.28125 -6.21875 C -1.90625 -6.21875 -0.925781 -5.859375 -0.34375 -5.140625 C 0.03125 -4.691406 0.21875 -4.164062 0.21875 -3.5625 C 0.21875 -3.09375 0.113281 -2.695312 -0.09375 -2.375 C -0.21875 -2.1875 -0.421875 -1.976562 -0.703125 -1.75 L 2.5 -1.75 L 2.5 -0.6875 Z "/>
</symbol>
<symbol overflow="visible" id="42fbfd65-e3ea-48c5-83cc-17aa7a416cd7">
<path style="stroke:none;" d="M 0.71875 0 L 0.71875 -6.90625 L 6.28125 -6.90625 L 6.28125 0 Z M 5.421875 -0.859375 L 5.421875 -6.046875 L 1.578125 -6.046875 L 1.578125 -0.859375 Z "/>
</symbol>
<symbol overflow="visible" id="db7cb222-5453-4065-8aad-35fbf4108ef7">
<path style="stroke:none;" d="M 2.5 -6.96875 C 2.582031 -6.96875 2.660156 -6.96875 2.734375 -6.96875 C 2.804688 -6.96875 2.898438 -6.960938 3.015625 -6.953125 L 3.015625 -5.859375 C 2.941406 -5.867188 2.816406 -5.875 2.640625 -5.875 C 2.460938 -5.882812 2.335938 -5.847656 2.265625 -5.765625 C 2.203125 -5.679688 2.171875 -5.585938 2.171875 -5.484375 C 2.171875 -5.390625 2.171875 -5.25 2.171875 -5.0625 L 3.046875 -5.0625 L 3.046875 -4.125 L 2.171875 -4.125 L 2.171875 0 L 0.84375 0 L 0.84375 -4.125 L 0.09375 -4.125 L 0.09375 -5.0625 L 0.828125 -5.0625 L 0.828125 -5.390625 C 0.828125 -5.929688 0.921875 -6.304688 1.109375 -6.515625 C 1.296875 -6.816406 1.757812 -6.96875 2.5 -6.96875 Z "/>
</symbol>
<symbol overflow="visible" id="0a8df84d-ece9-4961-b9f6-4aee8cf982a3">
<path style="stroke:none;" d="M 3.4375 -2.484375 C 3.351562 -2.429688 3.265625 -2.390625 3.171875 -2.359375 C 3.085938 -2.328125 2.972656 -2.296875 2.828125 -2.265625 L 2.53125 -2.203125 C 2.25 -2.148438 2.046875 -2.09375 1.921875 -2.03125 C 1.710938 -1.90625 1.609375 -1.710938 1.609375 -1.453125 C 1.609375 -1.222656 1.671875 -1.054688 1.796875 -0.953125 C 1.929688 -0.859375 2.085938 -0.8125 2.265625 -0.8125 C 2.554688 -0.8125 2.820312 -0.894531 3.0625 -1.0625 C 3.300781 -1.226562 3.425781 -1.535156 3.4375 -1.984375 Z M 2.625 -3.109375 C 2.875 -3.140625 3.050781 -3.175781 3.15625 -3.21875 C 3.34375 -3.300781 3.4375 -3.429688 3.4375 -3.609375 C 3.4375 -3.816406 3.363281 -3.957031 3.21875 -4.03125 C 3.070312 -4.113281 2.859375 -4.15625 2.578125 -4.15625 C 2.265625 -4.15625 2.046875 -4.078125 1.921875 -3.921875 C 1.828125 -3.804688 1.765625 -3.648438 1.734375 -3.453125 L 0.4375 -3.453125 C 0.46875 -3.898438 0.59375 -4.265625 0.8125 -4.546875 C 1.164062 -5.003906 1.769531 -5.234375 2.625 -5.234375 C 3.1875 -5.234375 3.6875 -5.117188 4.125 -4.890625 C 4.5625 -4.671875 4.78125 -4.253906 4.78125 -3.640625 L 4.78125 -1.296875 C 4.78125 -1.128906 4.78125 -0.929688 4.78125 -0.703125 C 4.789062 -0.523438 4.816406 -0.40625 4.859375 -0.34375 C 4.898438 -0.28125 4.96875 -0.234375 5.0625 -0.203125 L 5.0625 0 L 3.609375 0 C 3.566406 -0.101562 3.535156 -0.195312 3.515625 -0.28125 C 3.503906 -0.375 3.492188 -0.476562 3.484375 -0.59375 C 3.296875 -0.394531 3.082031 -0.226562 2.84375 -0.09375 C 2.5625 0.0703125 2.238281 0.15625 1.875 0.15625 C 1.414062 0.15625 1.035156 0.0234375 0.734375 -0.234375 C 0.429688 -0.492188 0.28125 -0.867188 0.28125 -1.359375 C 0.28125 -1.984375 0.519531 -2.4375 1 -2.71875 C 1.269531 -2.875 1.660156 -2.984375 2.171875 -3.046875 Z M 2.703125 -5.234375 Z "/>
</symbol>
<symbol overflow="visible" id="ff837260-ee4c-4a49-9173-20cd439030c3">
<path style="stroke:none;" d="M 3.671875 -3.28125 C 3.648438 -3.46875 3.585938 -3.640625 3.484375 -3.796875 C 3.328125 -3.992188 3.09375 -4.09375 2.78125 -4.09375 C 2.332031 -4.09375 2.023438 -3.867188 1.859375 -3.421875 C 1.773438 -3.191406 1.734375 -2.878906 1.734375 -2.484375 C 1.734375 -2.109375 1.773438 -1.804688 1.859375 -1.578125 C 2.015625 -1.148438 2.316406 -0.9375 2.765625 -0.9375 C 3.078125 -0.9375 3.296875 -1.019531 3.421875 -1.1875 C 3.554688 -1.363281 3.632812 -1.582031 3.65625 -1.84375 L 5.03125 -1.84375 C 5 -1.4375 4.851562 -1.054688 4.59375 -0.703125 C 4.164062 -0.117188 3.539062 0.171875 2.71875 0.171875 C 1.90625 0.171875 1.300781 -0.0664062 0.90625 -0.546875 C 0.519531 -1.035156 0.328125 -1.671875 0.328125 -2.453125 C 0.328125 -3.328125 0.539062 -4.007812 0.96875 -4.5 C 1.394531 -4.988281 1.988281 -5.234375 2.75 -5.234375 C 3.382812 -5.234375 3.90625 -5.085938 4.3125 -4.796875 C 4.71875 -4.503906 4.960938 -4 5.046875 -3.28125 Z M 2.765625 -5.234375 Z "/>
</symbol>
<symbol overflow="visible" id="15f8161f-117d-442a-8b47-a65d1816384f">
<path style="stroke:none;" d="M 0.09375 -4.109375 L 0.09375 -5.0625 L 0.8125 -5.0625 L 0.8125 -6.484375 L 2.125 -6.484375 L 2.125 -5.0625 L 2.953125 -5.0625 L 2.953125 -4.109375 L 2.125 -4.109375 L 2.125 -1.40625 C 2.125 -1.195312 2.148438 -1.066406 2.203125 -1.015625 C 2.265625 -0.960938 2.429688 -0.9375 2.703125 -0.9375 C 2.742188 -0.9375 2.785156 -0.9375 2.828125 -0.9375 C 2.867188 -0.945312 2.910156 -0.953125 2.953125 -0.953125 L 2.953125 0.046875 L 2.328125 0.0625 C 1.691406 0.09375 1.257812 -0.0078125 1.03125 -0.25 C 0.882812 -0.40625 0.8125 -0.644531 0.8125 -0.96875 L 0.8125 -4.109375 Z "/>
</symbol>
<symbol overflow="visible" id="dd59e536-9bfb-4d75-a78f-392f13a8344e">
<path style="stroke:none;" d="M 2.90625 -0.9375 C 3.300781 -0.9375 3.601562 -1.078125 3.8125 -1.359375 C 4.019531 -1.640625 4.125 -2.035156 4.125 -2.546875 C 4.125 -3.054688 4.019531 -3.445312 3.8125 -3.71875 C 3.601562 -4 3.300781 -4.140625 2.90625 -4.140625 C 2.519531 -4.140625 2.222656 -4 2.015625 -3.71875 C 1.804688 -3.445312 1.703125 -3.054688 1.703125 -2.546875 C 1.703125 -2.035156 1.804688 -1.640625 2.015625 -1.359375 C 2.222656 -1.078125 2.519531 -0.9375 2.90625 -0.9375 Z M 5.53125 -2.546875 C 5.53125 -1.796875 5.3125 -1.15625 4.875 -0.625 C 4.445312 -0.09375 3.796875 0.171875 2.921875 0.171875 C 2.046875 0.171875 1.390625 -0.09375 0.953125 -0.625 C 0.523438 -1.15625 0.3125 -1.796875 0.3125 -2.546875 C 0.3125 -3.285156 0.523438 -3.921875 0.953125 -4.453125 C 1.390625 -4.992188 2.046875 -5.265625 2.921875 -5.265625 C 3.796875 -5.265625 4.445312 -4.992188 4.875 -4.453125 C 5.3125 -3.921875 5.53125 -3.285156 5.53125 -2.546875 Z M 2.921875 -5.234375 Z "/>
</symbol>
<symbol overflow="visible" id="9251fb7d-159a-4b9b-91a8-8ad9f6ee6e6a">
<path style="stroke:none;" d="M 3.390625 -5.234375 C 3.421875 -5.234375 3.441406 -5.226562 3.453125 -5.21875 C 3.472656 -5.21875 3.515625 -5.21875 3.578125 -5.21875 L 3.578125 -3.84375 C 3.492188 -3.851562 3.414062 -3.859375 3.34375 -3.859375 C 3.28125 -3.867188 3.226562 -3.875 3.1875 -3.875 C 2.65625 -3.875 2.296875 -3.695312 2.109375 -3.34375 C 2.003906 -3.144531 1.953125 -2.84375 1.953125 -2.4375 L 1.953125 0 L 0.609375 0 L 0.609375 -5.109375 L 1.890625 -5.109375 L 1.890625 -4.21875 C 2.085938 -4.5625 2.265625 -4.789062 2.421875 -4.90625 C 2.671875 -5.125 2.992188 -5.234375 3.390625 -5.234375 Z "/>
</symbol>
<symbol overflow="visible" id="84be9623-5bc8-4f62-8375-27caa9a6181c">
<path style="stroke:none;" d="M 0.96875 -5.15625 C 1.207031 -5.738281 1.566406 -6.359375 2.046875 -7.015625 L 3.046875 -7.015625 L 2.765625 -6.5 C 2.367188 -5.769531 2.097656 -5.007812 1.953125 -4.21875 C 1.847656 -3.707031 1.796875 -3.144531 1.796875 -2.53125 C 1.796875 -1.570312 1.9375 -0.691406 2.21875 0.109375 C 2.375 0.578125 2.660156 1.1875 3.078125 1.9375 L 2.09375 1.9375 L 1.75 1.484375 C 1.539062 1.203125 1.3125 0.789062 1.0625 0.25 C 0.632812 -0.71875 0.421875 -1.671875 0.421875 -2.609375 C 0.421875 -3.460938 0.601562 -4.3125 0.96875 -5.15625 Z "/>
</symbol>
<symbol overflow="visible" id="c2f96c17-f899-4047-a4e1-e73845383479">
<path style="stroke:none;" d="M 0.828125 0.984375 L 1 0.984375 C 1.125 0.992188 1.242188 0.988281 1.359375 0.96875 C 1.484375 0.957031 1.585938 0.921875 1.671875 0.859375 C 1.753906 0.804688 1.828125 0.695312 1.890625 0.53125 C 1.953125 0.363281 1.976562 0.257812 1.96875 0.21875 L 0.09375 -5.109375 L 1.578125 -5.109375 L 2.703125 -1.34375 L 3.75 -5.109375 L 5.171875 -5.109375 L 3.421875 -0.078125 C 3.078125 0.890625 2.804688 1.488281 2.609375 1.71875 C 2.421875 1.945312 2.03125 2.0625 1.4375 2.0625 C 1.320312 2.0625 1.226562 2.0625 1.15625 2.0625 C 1.082031 2.0625 0.972656 2.054688 0.828125 2.046875 Z M 2.640625 -5.234375 Z "/>
</symbol>
<symbol overflow="visible" id="29ad706b-aa6a-49f0-93a9-16f755b09d03">
<path style="stroke:none;" d="M 1.984375 0 L 0.65625 0 L 0.65625 -6.90625 L 1.984375 -6.90625 Z "/>
</symbol>
<symbol overflow="visible" id="840ee58a-6477-4812-87d2-ff9f4734ff5a">
<path style="stroke:none;" d="M 1.125 -7.015625 C 1.601562 -6.359375 1.96875 -5.738281 2.21875 -5.15625 C 2.582031 -4.3125 2.765625 -3.460938 2.765625 -2.609375 C 2.765625 -1.671875 2.546875 -0.71875 2.109375 0.25 C 1.867188 0.789062 1.640625 1.203125 1.421875 1.484375 L 1.09375 1.9375 L 0.09375 1.9375 C 0.507812 1.1875 0.796875 0.578125 0.953125 0.109375 C 1.234375 -0.691406 1.375 -1.570312 1.375 -2.53125 C 1.375 -3.144531 1.328125 -3.707031 1.234375 -4.21875 C 1.078125 -5.007812 0.800781 -5.769531 0.40625 -6.5 L 0.125 -7.015625 Z "/>
</symbol>
</g>
<clipPath id="f4245e2b-212b-42b8-8b5b-926ca2783878">
  <path d="M 46.101562 14.398438 L 379 14.398438 L 379 253 L 46.101562 253 Z "/>
</clipPath>
<clipPath id="0d3b880b-04e5-4015-bac2-4a23f3856195">
  <path d="M 46.101562 242 L 379 242 L 379 244 L 46.101562 244 Z "/>
</clipPath>
<clipPath id="50d1e822-d306-472b-b144-bad072216a93">
  <path d="M 46.101562 166 L 379 166 L 379 167 L 46.101562 167 Z "/>
</clipPath>
<clipPath id="17bab5f3-1deb-4c6e-b321-a7c4171e6851">
  <path d="M 46.101562 89 L 379 89 L 379 91 L 46.101562 91 Z "/>
</clipPath>
<clipPath id="1ee5fe88-cd7d-4a94-ab85-5adb2331824b">
  <path d="M 87 14.398438 L 89 14.398438 L 89 253 L 87 253 Z "/>
</clipPath>
<clipPath id="e022adc5-b410-4e1a-84ea-95cf0a129ec9">
  <path d="M 152 14.398438 L 153 14.398438 L 153 253 L 152 253 Z "/>
</clipPath>
<clipPath id="d1def741-df89-47d8-b4b7-06d61fb60004">
  <path d="M 216 14.398438 L 218 14.398438 L 218 253 L 216 253 Z "/>
</clipPath>
<clipPath id="d130402b-d088-449e-a4fb-9eeaa81f9e05">
  <path d="M 280 14.398438 L 282 14.398438 L 282 253 L 280 253 Z "/>
</clipPath>
<clipPath id="700f861a-0e61-4bcf-bf6f-5e928df98b4b">
  <path d="M 345 14.398438 L 346 14.398438 L 346 253 L 345 253 Z "/>
</clipPath>
<clipPath id="a2039471-4d17-45bd-8c45-bb7472304535">
  <path d="M 46.101562 204 L 379.644531 204 L 379.644531 206 L 46.101562 206 Z "/>
</clipPath>
<clipPath id="ef83f749-a325-4649-97ed-330e7784421a">
  <path d="M 46.101562 127 L 379.644531 127 L 379.644531 129 L 46.101562 129 Z "/>
</clipPath>
<clipPath id="71a1d223-b649-4d87-8c05-2e7beff89e67">
  <path d="M 46.101562 51 L 379.644531 51 L 379.644531 53 L 46.101562 53 Z "/>
</clipPath>
<clipPath id="40483dc6-eaf5-4cae-8d7c-9fcf0bc92241">
  <path d="M 55 14.398438 L 57 14.398438 L 57 253 L 55 253 Z "/>
</clipPath>
<clipPath id="b3a5f7d3-d1f4-48e0-bc36-ad9813c38f40">
  <path d="M 119 14.398438 L 121 14.398438 L 121 253 L 119 253 Z "/>
</clipPath>
<clipPath id="79ea7a80-3495-49b5-bc38-31a777e70680">
  <path d="M 184 14.398438 L 186 14.398438 L 186 253 L 184 253 Z "/>
</clipPath>
<clipPath id="783c70f7-b923-422e-89fb-1b491c984779">
  <path d="M 248 14.398438 L 250 14.398438 L 250 253 L 248 253 Z "/>
</clipPath>
<clipPath id="41a4d6a7-061e-46d0-8d23-2b7ad5796511">
  <path d="M 312 14.398438 L 314 14.398438 L 314 253 L 312 253 Z "/>
</clipPath>
<clipPath id="a4924656-387d-45e7-8e86-7884df829601">
  <path d="M 377 14.398438 L 379 14.398438 L 379 253 L 377 253 Z "/>
</clipPath>
</defs>
<g id="d0ae2000-997e-4802-9076-41063753c314">
<rect x="0" y="0" width="468" height="289" style="fill:rgb(100%,100%,100%);fill-opacity:1;stroke:none;"/>
<rect x="0" y="0" width="468" height="289" style="fill:rgb(100%,100%,100%);fill-opacity:1;stroke:none;"/>
<path style="fill:none;stroke-width:1.062992;stroke-linecap:round;stroke-linejoin:round;stroke:rgb(100%,100%,100%);stroke-opacity:1;stroke-miterlimit:10;" d="M 0 289 L 468 289 L 468 0 L 0 0 Z "/>
<g clip-path="url(#f4245e2b-212b-42b8-8b5b-926ca2783878)" clip-rule="nonzero">
<path style=" stroke:none;fill-rule:nonzero;fill:rgb(89.803922%,89.803922%,89.803922%);fill-opacity:1;" d="M 46.101562 252.027344 L 378.644531 252.027344 L 378.644531 14.398438 L 46.101562 14.398438 Z "/>
</g>
<g clip-path="url(#0d3b880b-04e5-4015-bac2-4a23f3856195)" clip-rule="nonzero">
<path style="fill:none;stroke-width:0.531496;stroke-linecap:butt;stroke-linejoin:round;stroke:rgb(94.901961%,94.901961%,94.901961%);stroke-opacity:1;stroke-miterlimit:10;" d="M 46.101562 242.753906 L 378.644531 242.753906 "/>
</g>
<g clip-path="url(#50d1e822-d306-472b-b144-bad072216a93)" clip-rule="nonzero">
<path style="fill:none;stroke-width:0.531496;stroke-linecap:butt;stroke-linejoin:round;stroke:rgb(94.901961%,94.901961%,94.901961%);stroke-opacity:1;stroke-miterlimit:10;" d="M 46.101562 166.421875 L 378.644531 166.421875 "/>
</g>
<g clip-path="url(#17bab5f3-1deb-4c6e-b321-a7c4171e6851)" clip-rule="nonzero">
<path style="fill:none;stroke-width:0.531496;stroke-linecap:butt;stroke-linejoin:round;stroke:rgb(94.901961%,94.901961%,94.901961%);stroke-opacity:1;stroke-miterlimit:10;" d="M 46.101562 90.085938 L 378.644531 90.085938 "/>
</g>
<g clip-path="url(#1ee5fe88-cd7d-4a94-ab85-5adb2331824b)" clip-rule="nonzero">
<path style="fill:none;stroke-width:0.531496;stroke-linecap:butt;stroke-linejoin:round;stroke:rgb(94.901961%,94.901961%,94.901961%);stroke-opacity:1;stroke-miterlimit:10;" d="M 88.234375 252.027344 L 88.234375 14.398438 "/>
</g>
<g clip-path="url(#e022adc5-b410-4e1a-84ea-95cf0a129ec9)" clip-rule="nonzero">
<path style="fill:none;stroke-width:0.531496;stroke-linecap:butt;stroke-linejoin:round;stroke:rgb(94.901961%,94.901961%,94.901961%);stroke-opacity:1;stroke-miterlimit:10;" d="M 152.554688 252.027344 L 152.554688 14.398438 "/>
</g>
<g clip-path="url(#d1def741-df89-47d8-b4b7-06d61fb60004)" clip-rule="nonzero">
<path style="fill:none;stroke-width:0.531496;stroke-linecap:butt;stroke-linejoin:round;stroke:rgb(94.901961%,94.901961%,94.901961%);stroke-opacity:1;stroke-miterlimit:10;" d="M 216.875 252.027344 L 216.875 14.398438 "/>
</g>
<g clip-path="url(#d130402b-d088-449e-a4fb-9eeaa81f9e05)" clip-rule="nonzero">
<path style="fill:none;stroke-width:0.531496;stroke-linecap:butt;stroke-linejoin:round;stroke:rgb(94.901961%,94.901961%,94.901961%);stroke-opacity:1;stroke-miterlimit:10;" d="M 281.199219 252.027344 L 281.199219 14.398438 "/>
</g>
<g clip-path="url(#700f861a-0e61-4bcf-bf6f-5e928df98b4b)" clip-rule="nonzero">
<path style="fill:none;stroke-width:0.531496;stroke-linecap:butt;stroke-linejoin:round;stroke:rgb(94.901961%,94.901961%,94.901961%);stroke-opacity:1;stroke-miterlimit:10;" d="M 345.519531 252.027344 L 345.519531 14.398438 "/>
</g>
<g clip-path="url(#a2039471-4d17-45bd-8c45-bb7472304535)" clip-rule="nonzero">
<path style="fill:none;stroke-width:1.062992;stroke-linecap:butt;stroke-linejoin:round;stroke:rgb(100%,100%,100%);stroke-opacity:1;stroke-miterlimit:10;" d="M 46.101562 204.585938 L 378.644531 204.585938 "/>
</g>
<g clip-path="url(#ef83f749-a325-4649-97ed-330e7784421a)" clip-rule="nonzero">
<path style="fill:none;stroke-width:1.062992;stroke-linecap:butt;stroke-linejoin:round;stroke:rgb(100%,100%,100%);stroke-opacity:1;stroke-miterlimit:10;" d="M 46.101562 128.253906 L 378.644531 128.253906 "/>
</g>
<g clip-path="url(#71a1d223-b649-4d87-8c05-2e7beff89e67)" clip-rule="nonzero">
<path style="fill:none;stroke-width:1.062992;stroke-linecap:butt;stroke-linejoin:round;stroke:rgb(100%,100%,100%);stroke-opacity:1;stroke-miterlimit:10;" d="M 46.101562 51.917969 L 378.644531 51.917969 "/>
</g>
<g clip-path="url(#40483dc6-eaf5-4cae-8d7c-9fcf0bc92241)" clip-rule="nonzero">
<path style="fill:none;stroke-width:1.062992;stroke-linecap:butt;stroke-linejoin:round;stroke:rgb(100%,100%,100%);stroke-opacity:1;stroke-miterlimit:10;" d="M 56.074219 252.027344 L 56.074219 14.398438 "/>
</g>
<g clip-path="url(#b3a5f7d3-d1f4-48e0-bc36-ad9813c38f40)" clip-rule="nonzero">
<path style="fill:none;stroke-width:1.062992;stroke-linecap:butt;stroke-linejoin:round;stroke:rgb(100%,100%,100%);stroke-opacity:1;stroke-miterlimit:10;" d="M 120.394531 252.027344 L 120.394531 14.398438 "/>
</g>
<g clip-path="url(#79ea7a80-3495-49b5-bc38-31a777e70680)" clip-rule="nonzero">
<path style="fill:none;stroke-width:1.062992;stroke-linecap:butt;stroke-linejoin:round;stroke:rgb(100%,100%,100%);stroke-opacity:1;stroke-miterlimit:10;" d="M 184.714844 252.027344 L 184.714844 14.398438 "/>
</g>
<g clip-path="url(#783c70f7-b923-422e-89fb-1b491c984779)" clip-rule="nonzero">
<path style="fill:none;stroke-width:1.062992;stroke-linecap:butt;stroke-linejoin:round;stroke:rgb(100%,100%,100%);stroke-opacity:1;stroke-miterlimit:10;" d="M 249.039062 252.027344 L 249.039062 14.398438 "/>
</g>
<g clip-path="url(#41a4d6a7-061e-46d0-8d23-2b7ad5796511)" clip-rule="nonzero">
<path style="fill:none;stroke-width:1.062992;stroke-linecap:butt;stroke-linejoin:round;stroke:rgb(100%,100%,100%);stroke-opacity:1;stroke-miterlimit:10;" d="M 313.359375 252.027344 L 313.359375 14.398438 "/>
</g>
<g clip-path="url(#a4924656-387d-45e7-8e86-7884df829601)" clip-rule="nonzero">
<path style="fill:none;stroke-width:1.062992;stroke-linecap:butt;stroke-linejoin:round;stroke:rgb(100%,100%,100%);stroke-opacity:1;stroke-miterlimit:10;" d="M 377.679688 252.027344 L 377.679688 14.398438 "/>
</g>
<path style=" stroke:none;fill-rule:nonzero;fill:rgb(0%,72.941176%,21.960784%);fill-opacity:1;" d="M 199.707031 196.953125 C 199.707031 199.789062 195.453125 199.789062 195.453125 196.953125 C 195.453125 194.117188 199.707031 194.117188 199.707031 196.953125 "/>
<path style=" stroke:none;fill-rule:nonzero;fill:rgb(0%,72.941176%,21.960784%);fill-opacity:1;" d="M 199.707031 196.953125 C 199.707031 199.789062 195.453125 199.789062 195.453125 196.953125 C 195.453125 194.117188 199.707031 194.117188 199.707031 196.953125 "/>
<path style=" stroke:none;fill-rule:nonzero;fill:rgb(97.254902%,46.27451%,42.745098%);fill-opacity:1;" d="M 222.863281 209.929688 C 222.863281 212.765625 218.609375 212.765625 218.609375 209.929688 C 218.609375 207.097656 222.863281 207.097656 222.863281 209.929688 "/>
<path style=" stroke:none;fill-rule:nonzero;fill:rgb(0%,72.941176%,21.960784%);fill-opacity:1;" d="M 204.851562 196.953125 C 204.851562 199.789062 200.601562 199.789062 200.601562 196.953125 C 200.601562 194.117188 204.851562 194.117188 204.851562 196.953125 "/>
<path style=" stroke:none;fill-rule:nonzero;fill:rgb(38.039216%,61.176471%,100%);fill-opacity:1;" d="M 170.117188 147.335938 C 170.117188 150.171875 165.867188 150.171875 165.867188 147.335938 C 165.867188 144.5 170.117188 144.5 170.117188 147.335938 "/>
<path style=" stroke:none;fill-rule:nonzero;fill:rgb(0%,72.941176%,21.960784%);fill-opacity:1;" d="M 162.398438 200.769531 C 162.398438 203.605469 158.148438 203.605469 158.148438 200.769531 C 158.148438 197.9375 162.398438 197.9375 162.398438 200.769531 "/>
<path style=" stroke:none;fill-rule:nonzero;fill:rgb(38.039216%,61.176471%,100%);fill-opacity:1;" d="M 113.515625 93.902344 C 113.515625 96.738281 109.261719 96.738281 109.261719 93.902344 C 109.261719 91.066406 113.515625 91.066406 113.515625 93.902344 "/>
<path style=" stroke:none;fill-rule:nonzero;fill:rgb(97.254902%,46.27451%,42.745098%);fill-opacity:1;" d="M 243.445312 233.59375 C 243.445312 236.429688 239.191406 236.429688 239.191406 233.59375 C 239.191406 230.757812 243.445312 230.757812 243.445312 233.59375 "/>
<path style=" stroke:none;fill-rule:nonzero;fill:rgb(97.254902%,46.27451%,42.745098%);fill-opacity:1;" d="M 222.863281 208.402344 C 222.863281 211.238281 218.609375 211.238281 218.609375 208.402344 C 218.609375 205.570312 222.863281 205.570312 222.863281 208.402344 "/>
<path style=" stroke:none;fill-rule:nonzero;fill:rgb(0%,72.941176%,21.960784%);fill-opacity:1;" d="M 176.550781 187.03125 C 176.550781 189.863281 172.296875 189.863281 172.296875 187.03125 C 172.296875 184.195312 176.550781 184.195312 176.550781 187.03125 "/>
<path style=" stroke:none;fill-rule:nonzero;fill:rgb(0%,72.941176%,21.960784%);fill-opacity:1;" d="M 158.539062 187.03125 C 158.539062 189.863281 154.289062 189.863281 154.289062 187.03125 C 154.289062 184.195312 158.539062 184.195312 158.539062 187.03125 "/>
<path style=" stroke:none;fill-rule:nonzero;fill:rgb(38.039216%,61.176471%,100%);fill-opacity:1;" d="M 140.53125 143.519531 C 140.53125 146.355469 136.277344 146.355469 136.277344 143.519531 C 136.277344 140.683594 140.53125 140.683594 140.53125 143.519531 "/>
<path style=" stroke:none;fill-rule:nonzero;fill:rgb(38.039216%,61.176471%,100%);fill-opacity:1;" d="M 152.109375 143.519531 C 152.109375 146.355469 147.855469 146.355469 147.855469 143.519531 C 147.855469 140.683594 152.109375 140.683594 152.109375 143.519531 "/>
<path style=" stroke:none;fill-rule:nonzero;fill:rgb(38.039216%,61.176471%,100%);fill-opacity:1;" d="M 125.09375 143.519531 C 125.09375 146.355469 120.839844 146.355469 120.839844 143.519531 C 120.839844 140.683594 125.09375 140.683594 125.09375 143.519531 "/>
<path style=" stroke:none;fill-rule:nonzero;fill:rgb(38.039216%,61.176471%,100%);fill-opacity:1;" d="M 63.34375 124.4375 C 63.34375 127.269531 59.09375 127.269531 59.09375 124.4375 C 59.09375 121.601562 63.34375 121.601562 63.34375 124.4375 "/>
<path style=" stroke:none;fill-rule:nonzero;fill:rgb(38.039216%,61.176471%,100%);fill-opacity:1;" d="M 63.34375 116.800781 C 63.34375 119.636719 59.09375 119.636719 59.09375 116.800781 C 59.09375 113.96875 63.34375 113.96875 63.34375 116.800781 "/>
<path style=" stroke:none;fill-rule:nonzero;fill:rgb(38.039216%,61.176471%,100%);fill-opacity:1;" d="M 118.660156 105.351562 C 118.660156 108.1875 114.410156 108.1875 114.410156 105.351562 C 114.410156 102.519531 118.660156 102.519531 118.660156 105.351562 "/>
<path style=" stroke:none;fill-rule:nonzero;fill:rgb(97.254902%,46.27451%,42.745098%);fill-opacity:1;" d="M 346.359375 230.539062 C 346.359375 233.375 342.109375 233.375 342.109375 230.539062 C 342.109375 227.707031 346.359375 227.707031 346.359375 230.539062 "/>
<path style=" stroke:none;fill-rule:nonzero;fill:rgb(97.254902%,46.27451%,42.745098%);fill-opacity:1;" d="M 320.632812 241.226562 C 320.632812 244.0625 316.378906 244.0625 316.378906 241.226562 C 316.378906 238.394531 320.632812 238.394531 320.632812 241.226562 "/>
<path style=" stroke:none;fill-rule:nonzero;fill:rgb(97.254902%,46.27451%,42.745098%);fill-opacity:1;" d="M 365.65625 231.304688 C 365.65625 234.140625 361.40625 234.140625 361.40625 231.304688 C 361.40625 228.46875 365.65625 228.46875 365.65625 231.304688 "/>
<path style=" stroke:none;fill-rule:nonzero;fill:rgb(97.254902%,46.27451%,42.745098%);fill-opacity:1;" d="M 206.136719 206.878906 C 206.136719 209.710938 201.886719 209.710938 201.886719 206.878906 C 201.886719 204.042969 206.136719 204.042969 206.136719 206.878906 "/>
<path style=" stroke:none;fill-rule:nonzero;fill:rgb(38.039216%,61.176471%,100%);fill-opacity:1;" d="M 128.953125 166.421875 C 128.953125 169.253906 124.699219 169.253906 124.699219 166.421875 C 124.699219 163.585938 128.953125 163.585938 128.953125 166.421875 "/>
<path style=" stroke:none;fill-rule:nonzero;fill:rgb(38.039216%,61.176471%,100%);fill-opacity:1;" d="M 125.09375 166.421875 C 125.09375 169.253906 120.839844 169.253906 120.839844 166.421875 C 120.839844 163.585938 125.09375 163.585938 125.09375 166.421875 "/>
<path style=" stroke:none;fill-rule:nonzero;fill:rgb(38.039216%,61.176471%,100%);fill-opacity:1;" d="M 100.652344 93.902344 C 100.652344 96.738281 96.398438 96.738281 96.398438 93.902344 C 96.398438 91.066406 100.652344 91.066406 100.652344 93.902344 "/>
<path style=" stroke:none;fill-rule:nonzero;fill:rgb(38.039216%,61.176471%,100%);fill-opacity:1;" d="M 176.550781 147.335938 C 176.550781 150.171875 172.296875 150.171875 172.296875 147.335938 C 172.296875 144.5 176.550781 144.5 176.550781 147.335938 "/>
<path style=" stroke:none;fill-rule:nonzero;fill:rgb(97.254902%,46.27451%,42.745098%);fill-opacity:1;" d="M 280.75 230.539062 C 280.75 233.375 276.5 233.375 276.5 230.539062 C 276.5 227.707031 280.75 227.707031 280.75 230.539062 "/>
<path style=" stroke:none;fill-rule:nonzero;fill:rgb(97.254902%,46.27451%,42.745098%);fill-opacity:1;" d="M 264.027344 211.457031 C 264.027344 214.292969 259.777344 214.292969 259.777344 211.457031 C 259.777344 208.621094 264.027344 208.621094 264.027344 211.457031 "/>
<path style=" stroke:none;fill-rule:nonzero;fill:rgb(97.254902%,46.27451%,42.745098%);fill-opacity:1;" d="M 320.632812 194.664062 C 320.632812 197.5 316.378906 197.5 316.378906 194.664062 C 316.378906 191.828125 320.632812 191.828125 320.632812 194.664062 "/>
<path style=" stroke:none;fill-rule:nonzero;fill:rgb(38.039216%,61.176471%,100%);fill-opacity:1;" d="M 132.8125 79.398438 C 132.8125 82.234375 128.558594 82.234375 128.558594 79.398438 C 128.558594 76.5625 132.8125 76.5625 132.8125 79.398438 "/>
<path style=" stroke:none;fill-rule:nonzero;fill:rgb(0%,72.941176%,21.960784%);fill-opacity:1;" d="M 182.984375 147.335938 C 182.984375 150.171875 178.730469 150.171875 178.730469 147.335938 C 178.730469 144.5 182.984375 144.5 182.984375 147.335938 "/>
<path style=" stroke:none;fill-rule:nonzero;fill:rgb(38.039216%,61.176471%,100%);fill-opacity:1;" d="M 122.519531 25.203125 C 122.519531 28.035156 118.269531 28.035156 118.269531 25.203125 C 118.269531 22.367188 122.519531 22.367188 122.519531 25.203125 "/>
<path style=" stroke:none;fill-rule:nonzero;fill:rgb(97.254902%,46.27451%,42.745098%);fill-opacity:1;" d="M 204.851562 197.71875 C 204.851562 200.550781 200.601562 200.550781 200.601562 197.71875 C 200.601562 194.882812 204.851562 194.882812 204.851562 197.71875 "/>
<g style="fill:rgb(49.803922%,49.803922%,49.803922%);fill-opacity:1;">
  <use xlink:href="#87a35649-25df-4c36-af6d-22bbe5b80aab" x="23.007812" y="208.023438"/>
  <use xlink:href="#40a15725-7e3a-466e-8752-543e87934dde" x="28.343399" y="208.023438"/>
  <use xlink:href="#40a15725-7e3a-466e-8752-543e87934dde" x="33.678986" y="208.023438"/>
</g>
<g style="fill:rgb(49.803922%,49.803922%,49.803922%);fill-opacity:1;">
  <use xlink:href="#de72ccd9-aa53-46ef-bdc8-f0d987b0fbe0" x="23.007812" y="131.691406"/>
  <use xlink:href="#40a15725-7e3a-466e-8752-543e87934dde" x="28.343399" y="131.691406"/>
  <use xlink:href="#40a15725-7e3a-466e-8752-543e87934dde" x="33.678986" y="131.691406"/>
</g>
<g style="fill:rgb(49.803922%,49.803922%,49.803922%);fill-opacity:1;">
  <use xlink:href="#fb4b61fa-c14d-4852-bd66-fed444a9a127" x="23.007812" y="55.355469"/>
  <use xlink:href="#40a15725-7e3a-466e-8752-543e87934dde" x="28.343399" y="55.355469"/>
  <use xlink:href="#40a15725-7e3a-466e-8752-543e87934dde" x="33.678986" y="55.355469"/>
</g>
<path style="fill:none;stroke-width:1.062992;stroke-linecap:butt;stroke-linejoin:round;stroke:rgb(49.803922%,49.803922%,49.803922%);stroke-opacity:1;stroke-miterlimit:10;" d="M 41.851562 204.585938 L 46.101562 204.585938 "/>
<path style="fill:none;stroke-width:1.062992;stroke-linecap:butt;stroke-linejoin:round;stroke:rgb(49.803922%,49.803922%,49.803922%);stroke-opacity:1;stroke-miterlimit:10;" d="M 41.851562 128.253906 L 46.101562 128.253906 "/>
<path style="fill:none;stroke-width:1.062992;stroke-linecap:butt;stroke-linejoin:round;stroke:rgb(49.803922%,49.803922%,49.803922%);stroke-opacity:1;stroke-miterlimit:10;" d="M 41.851562 51.917969 L 46.101562 51.917969 "/>
<path style="fill:none;stroke-width:1.062992;stroke-linecap:butt;stroke-linejoin:round;stroke:rgb(49.803922%,49.803922%,49.803922%);stroke-opacity:1;stroke-miterlimit:10;" d="M 56.074219 256.28125 L 56.074219 252.027344 "/>
<path style="fill:none;stroke-width:1.062992;stroke-linecap:butt;stroke-linejoin:round;stroke:rgb(49.803922%,49.803922%,49.803922%);stroke-opacity:1;stroke-miterlimit:10;" d="M 120.394531 256.28125 L 120.394531 252.027344 "/>
<path style="fill:none;stroke-width:1.062992;stroke-linecap:butt;stroke-linejoin:round;stroke:rgb(49.803922%,49.803922%,49.803922%);stroke-opacity:1;stroke-miterlimit:10;" d="M 184.714844 256.28125 L 184.714844 252.027344 "/>
<path style="fill:none;stroke-width:1.062992;stroke-linecap:butt;stroke-linejoin:round;stroke:rgb(49.803922%,49.803922%,49.803922%);stroke-opacity:1;stroke-miterlimit:10;" d="M 249.039062 256.28125 L 249.039062 252.027344 "/>
<path style="fill:none;stroke-width:1.062992;stroke-linecap:butt;stroke-linejoin:round;stroke:rgb(49.803922%,49.803922%,49.803922%);stroke-opacity:1;stroke-miterlimit:10;" d="M 313.359375 256.28125 L 313.359375 252.027344 "/>
<path style="fill:none;stroke-width:1.062992;stroke-linecap:butt;stroke-linejoin:round;stroke:rgb(49.803922%,49.803922%,49.803922%);stroke-opacity:1;stroke-miterlimit:10;" d="M 377.679688 256.28125 L 377.679688 252.027344 "/>
<g style="fill:rgb(49.803922%,49.803922%,49.803922%);fill-opacity:1;">
  <use xlink:href="#87a35649-25df-4c36-af6d-22bbe5b80aab" x="50.738281" y="265.992188"/>
  <use xlink:href="#40a15725-7e3a-466e-8752-543e87934dde" x="56.073868" y="265.992188"/>
</g>
<g style="fill:rgb(49.803922%,49.803922%,49.803922%);fill-opacity:1;">
  <use xlink:href="#87a35649-25df-4c36-af6d-22bbe5b80aab" x="115.058594" y="265.992188"/>
  <use xlink:href="#04aece9b-5640-42fe-a73b-b5824364e50c" x="120.39418" y="265.992188"/>
</g>
<g style="fill:rgb(49.803922%,49.803922%,49.803922%);fill-opacity:1;">
  <use xlink:href="#de72ccd9-aa53-46ef-bdc8-f0d987b0fbe0" x="179.378906" y="265.992188"/>
  <use xlink:href="#40a15725-7e3a-466e-8752-543e87934dde" x="184.714493" y="265.992188"/>
</g>
<g style="fill:rgb(49.803922%,49.803922%,49.803922%);fill-opacity:1;">
  <use xlink:href="#de72ccd9-aa53-46ef-bdc8-f0d987b0fbe0" x="243.703125" y="265.992188"/>
  <use xlink:href="#04aece9b-5640-42fe-a73b-b5824364e50c" x="249.038712" y="265.992188"/>
</g>
<g style="fill:rgb(49.803922%,49.803922%,49.803922%);fill-opacity:1;">
  <use xlink:href="#fb4b61fa-c14d-4852-bd66-fed444a9a127" x="308.023438" y="265.992188"/>
  <use xlink:href="#40a15725-7e3a-466e-8752-543e87934dde" x="313.359024" y="265.992188"/>
</g>
<g style="fill:rgb(49.803922%,49.803922%,49.803922%);fill-opacity:1;">
  <use xlink:href="#fb4b61fa-c14d-4852-bd66-fed444a9a127" x="372.34375" y="265.992188"/>
  <use xlink:href="#04aece9b-5640-42fe-a73b-b5824364e50c" x="377.679337" y="265.992188"/>
</g>
<g style="fill:rgb(0%,0%,0%);fill-opacity:1;">
  <use xlink:href="#6b065d06-6ed3-4bb8-9184-49e8a911aeb5" x="200.703125" y="278.199219"/>
  <use xlink:href="#2982f6ae-a1cf-4e5f-bc1d-b29ef965e3fe" x="210.699219" y="278.199219"/>
  <use xlink:href="#00b39c3e-9c9b-4e2d-89e9-612de7135684" x="217.373047" y="278.199219"/>
</g>
<g style="fill:rgb(0%,0%,0%);fill-opacity:1;">
  <use xlink:href="#45e057ee-4ef5-41c2-ae58-98fb5039ee29" x="19.410156" y="139.886719"/>
  <use xlink:href="#d6fb0de9-1fdb-4c7e-8fd9-68f652440cc1" x="19.410156" y="133.212891"/>
</g>
<path style=" stroke:none;fill-rule:nonzero;fill:rgb(100%,100%,100%);fill-opacity:1;" d="M 388.679688 169 L 443.5625 169 L 443.5625 97.429688 L 388.679688 97.429688 Z "/>
<g style="fill:rgb(0%,0%,0%);fill-opacity:1;">
  <use xlink:href="#db7cb222-5453-4065-8aad-35fbf4108ef7" x="392.933594" y="108.585938"/>
  <use xlink:href="#0a8df84d-ece9-4961-b9f6-4aee8cf982a3" x="396.128387" y="108.585938"/>
  <use xlink:href="#ff837260-ee4c-4a49-9173-20cd439030c3" x="401.463974" y="108.585938"/>
  <use xlink:href="#15f8161f-117d-442a-8b47-a65d1816384f" x="406.799561" y="108.585938"/>
  <use xlink:href="#dd59e536-9bfb-4d75-a78f-392f13a8344e" x="409.994354" y="108.585938"/>
  <use xlink:href="#9251fb7d-159a-4b9b-91a8-8ad9f6ee6e6a" x="415.854599" y="108.585938"/>
  <use xlink:href="#84be9623-5bc8-4f62-8375-27caa9a6181c" x="419.588104" y="108.585938"/>
  <use xlink:href="#ff837260-ee4c-4a49-9173-20cd439030c3" x="422.782898" y="108.585938"/>
  <use xlink:href="#c2f96c17-f899-4047-a4e1-e73845383479" x="428.118484" y="108.585938"/>
  <use xlink:href="#29ad706b-aa6a-49f0-93a9-16f755b09d03" x="433.454071" y="108.585938"/>
  <use xlink:href="#840ee58a-6477-4812-87d2-ff9f4734ff5a" x="436.119522" y="108.585938"/>
</g>
<path style="fill-rule:nonzero;fill:rgb(94.901961%,94.901961%,94.901961%);fill-opacity:1;stroke-width:1.062992;stroke-linecap:round;stroke-linejoin:round;stroke:rgb(100%,100%,100%);stroke-opacity:1;stroke-miterlimit:10;" d="M 392.933594 130.1875 L 410.214844 130.1875 L 410.214844 112.90625 L 392.933594 112.90625 Z "/>
<path style=" stroke:none;fill-rule:nonzero;fill:rgb(97.254902%,46.27451%,42.745098%);fill-opacity:1;" d="M 403.699219 121.546875 C 403.699219 124.382812 399.445312 124.382812 399.445312 121.546875 C 399.445312 118.714844 403.699219 118.714844 403.699219 121.546875 "/>
<path style="fill-rule:nonzero;fill:rgb(94.901961%,94.901961%,94.901961%);fill-opacity:1;stroke-width:1.062992;stroke-linecap:round;stroke-linejoin:round;stroke:rgb(100%,100%,100%);stroke-opacity:1;stroke-miterlimit:10;" d="M 392.933594 147.46875 L 410.214844 147.46875 L 410.214844 130.1875 L 392.933594 130.1875 Z "/>
<path style=" stroke:none;fill-rule:nonzero;fill:rgb(0%,72.941176%,21.960784%);fill-opacity:1;" d="M 403.699219 138.828125 C 403.699219 141.664062 399.445312 141.664062 399.445312 138.828125 C 399.445312 135.992188 403.699219 135.992188 403.699219 138.828125 "/>
<path style="fill-rule:nonzero;fill:rgb(94.901961%,94.901961%,94.901961%);fill-opacity:1;stroke-width:1.062992;stroke-linecap:round;stroke-linejoin:round;stroke:rgb(100%,100%,100%);stroke-opacity:1;stroke-miterlimit:10;" d="M 392.933594 164.746094 L 410.214844 164.746094 L 410.214844 147.464844 L 392.933594 147.464844 Z "/>
<path style=" stroke:none;fill-rule:nonzero;fill:rgb(38.039216%,61.176471%,100%);fill-opacity:1;" d="M 403.699219 156.109375 C 403.699219 158.941406 399.445312 158.941406 399.445312 156.109375 C 399.445312 153.273438 403.699219 153.273438 403.699219 156.109375 "/>
<g style="fill:rgb(0%,0%,0%);fill-opacity:1;">
  <use xlink:href="#9aaae247-c09d-4648-9134-c9524c7e6424" x="412.371094" y="124.984375"/>
</g>
<g style="fill:rgb(0%,0%,0%);fill-opacity:1;">
  <use xlink:href="#2f936e51-2257-4ad1-a67c-6d6c647f55ef" x="412.371094" y="142.265625"/>
</g>
<g style="fill:rgb(0%,0%,0%);fill-opacity:1;">
  <use xlink:href="#3a072e32-42c5-4179-9bb1-d0343332c23c" x="412.371094" y="159.546875"/>
</g>
</g>
</svg>
