<?xml version="1.0" encoding="UTF-8"?>
<svg xmlns="http://www.w3.org/2000/svg" xmlns:xlink="http://www.w3.org/1999/xlink" width="360pt" height="360pt" viewBox="0 0 360 360" version="1.1">
<defs>
<g>
<symbol overflow="visible" id="6f08eec1-0cef-4d5d-aa1d-9450a5bec0de">
<path style="stroke:none;" d="M 0.3125 0 L 0.3125 -6.875 L 5.765625 -6.875 L 5.765625 0 Z M 4.90625 -0.859375 L 4.90625 -6.015625 L 1.171875 -6.015625 L 1.171875 -0.859375 Z "/>
</symbol>
<symbol overflow="visible" id="11ca787a-6fa7-49f6-9de7-a0d91cf0c462">
<path style="stroke:none;" d="M 0.390625 -3.109375 L 2.75 -3.109375 L 2.75 -2.234375 L 0.390625 -2.234375 Z "/>
</symbol>
<symbol overflow="visible" id="43dccd7c-9079-41a4-b017-641b8acf3913">
<path style="stroke:none;" d="M 0.296875 0 C 0.328125 -0.570312 0.445312 -1.070312 0.65625 -1.5 C 0.863281 -1.9375 1.269531 -2.328125 1.875 -2.671875 L 2.765625 -3.1875 C 3.171875 -3.425781 3.457031 -3.628906 3.625 -3.796875 C 3.875 -4.054688 4 -4.351562 4 -4.6875 C 4 -5.070312 3.878906 -5.378906 3.640625 -5.609375 C 3.410156 -5.835938 3.101562 -5.953125 2.71875 -5.953125 C 2.132812 -5.953125 1.734375 -5.734375 1.515625 -5.296875 C 1.398438 -5.066406 1.335938 -4.742188 1.328125 -4.328125 L 0.46875 -4.328125 C 0.476562 -4.910156 0.582031 -5.382812 0.78125 -5.75 C 1.144531 -6.40625 1.789062 -6.734375 2.71875 -6.734375 C 3.488281 -6.734375 4.050781 -6.523438 4.40625 -6.109375 C 4.757812 -5.691406 4.9375 -5.226562 4.9375 -4.71875 C 4.9375 -4.1875 4.75 -3.726562 4.375 -3.34375 C 4.15625 -3.125 3.757812 -2.851562 3.1875 -2.53125 L 2.546875 -2.1875 C 2.242188 -2.019531 2.003906 -1.859375 1.828125 -1.703125 C 1.515625 -1.429688 1.316406 -1.128906 1.234375 -0.796875 L 4.90625 -0.796875 L 4.90625 0 Z "/>
</symbol>
<symbol overflow="visible" id="a9f09df4-cab5-484f-8dfb-68965b5b31d5">
<path style="stroke:none;" d="M 0.921875 -4.75 L 0.921875 -5.390625 C 1.523438 -5.453125 1.945312 -5.550781 2.1875 -5.6875 C 2.425781 -5.832031 2.609375 -6.164062 2.734375 -6.6875 L 3.390625 -6.6875 L 3.390625 0 L 2.5 0 L 2.5 -4.75 Z "/>
</symbol>
<symbol overflow="visible" id="3de09881-83f4-4c89-84fa-e8d463bb6f77">
<path style="stroke:none;" d="M 2.59375 -6.703125 C 3.457031 -6.703125 4.085938 -6.347656 4.484375 -5.640625 C 4.773438 -5.085938 4.921875 -4.328125 4.921875 -3.359375 C 4.921875 -2.453125 4.785156 -1.695312 4.515625 -1.09375 C 4.128906 -0.238281 3.488281 0.1875 2.59375 0.1875 C 1.78125 0.1875 1.179688 -0.160156 0.796875 -0.859375 C 0.460938 -1.453125 0.296875 -2.238281 0.296875 -3.21875 C 0.296875 -3.976562 0.394531 -4.632812 0.59375 -5.1875 C 0.957031 -6.195312 1.625 -6.703125 2.59375 -6.703125 Z M 2.578125 -0.578125 C 3.015625 -0.578125 3.363281 -0.769531 3.625 -1.15625 C 3.882812 -1.550781 4.015625 -2.273438 4.015625 -3.328125 C 4.015625 -4.085938 3.921875 -4.710938 3.734375 -5.203125 C 3.546875 -5.703125 3.179688 -5.953125 2.640625 -5.953125 C 2.148438 -5.953125 1.789062 -5.71875 1.5625 -5.25 C 1.332031 -4.78125 1.21875 -4.09375 1.21875 -3.1875 C 1.21875 -2.5 1.289062 -1.945312 1.4375 -1.53125 C 1.65625 -0.894531 2.035156 -0.578125 2.578125 -0.578125 Z "/>
</symbol>
<symbol overflow="visible" id="24e8eaf4-36a4-4ab0-8d0b-0edfb8ddf105">
<path style="stroke:none;" d="M 0.390625 0 L 0.390625 -8.609375 L 7.21875 -8.609375 L 7.21875 0 Z M 6.140625 -1.078125 L 6.140625 -7.53125 L 1.46875 -7.53125 L 1.46875 -1.078125 Z "/>
</symbol>
<symbol overflow="visible" id="74ce8f4e-38f1-40f6-a137-32af4266482e">
<path style="stroke:none;" d="M 2.984375 -6.390625 C 3.484375 -6.390625 3.914062 -6.269531 4.28125 -6.03125 C 4.476562 -5.882812 4.679688 -5.679688 4.890625 -5.421875 L 4.890625 -6.21875 L 5.859375 -6.21875 L 5.859375 -0.515625 C 5.859375 0.285156 5.742188 0.914062 5.515625 1.375 C 5.078125 2.226562 4.25 2.65625 3.03125 2.65625 C 2.351562 2.65625 1.785156 2.503906 1.328125 2.203125 C 0.867188 1.898438 0.609375 1.425781 0.546875 0.78125 L 1.625 0.78125 C 1.675781 1.0625 1.773438 1.28125 1.921875 1.4375 C 2.160156 1.664062 2.535156 1.78125 3.046875 1.78125 C 3.859375 1.78125 4.390625 1.492188 4.640625 0.921875 C 4.785156 0.585938 4.851562 -0.0078125 4.84375 -0.875 C 4.632812 -0.550781 4.378906 -0.3125 4.078125 -0.15625 C 3.785156 0 3.394531 0.078125 2.90625 0.078125 C 2.226562 0.078125 1.632812 -0.160156 1.125 -0.640625 C 0.613281 -1.128906 0.359375 -1.929688 0.359375 -3.046875 C 0.359375 -4.097656 0.613281 -4.914062 1.125 -5.5 C 1.644531 -6.09375 2.265625 -6.390625 2.984375 -6.390625 Z M 4.890625 -3.171875 C 4.890625 -3.941406 4.726562 -4.515625 4.40625 -4.890625 C 4.082031 -5.265625 3.675781 -5.453125 3.1875 -5.453125 C 2.4375 -5.453125 1.925781 -5.101562 1.65625 -4.40625 C 1.507812 -4.039062 1.4375 -3.554688 1.4375 -2.953125 C 1.4375 -2.242188 1.578125 -1.703125 1.859375 -1.328125 C 2.148438 -0.960938 2.539062 -0.78125 3.03125 -0.78125 C 3.789062 -0.78125 4.320312 -1.125 4.625 -1.8125 C 4.800781 -2.195312 4.890625 -2.648438 4.890625 -3.171875 Z M 3.109375 -6.421875 Z "/>
</symbol>
<symbol overflow="visible" id="f93f7c71-4cb5-43aa-b668-0a4ad466fb3f">
<path style="stroke:none;" d="M 1.15625 -5.9375 L 1.15625 -6.75 C 1.914062 -6.820312 2.441406 -6.945312 2.734375 -7.125 C 3.035156 -7.300781 3.265625 -7.710938 3.421875 -8.359375 L 4.25 -8.359375 L 4.25 0 L 3.125 0 L 3.125 -5.9375 Z "/>
</symbol>
<symbol overflow="visible" id="1aa9d2e7-3193-4403-848f-a5b848f44ce9">
<path style="stroke:none;" d="M 0 -0.390625 L -8.609375 -0.390625 L -8.609375 -7.21875 L 0 -7.21875 Z M -1.078125 -6.140625 L -7.53125 -6.140625 L -7.53125 -1.46875 L -1.078125 -1.46875 Z "/>
</symbol>
<symbol overflow="visible" id="12e05140-39a8-46e2-bf69-5f412deb0674">
<path style="stroke:none;" d="M -6.390625 -2.984375 C -6.390625 -3.484375 -6.269531 -3.914062 -6.03125 -4.28125 C -5.882812 -4.476562 -5.679688 -4.679688 -5.421875 -4.890625 L -6.21875 -4.890625 L -6.21875 -5.859375 L -0.515625 -5.859375 C 0.285156 -5.859375 0.914062 -5.742188 1.375 -5.515625 C 2.226562 -5.078125 2.65625 -4.25 2.65625 -3.03125 C 2.65625 -2.351562 2.503906 -1.785156 2.203125 -1.328125 C 1.898438 -0.867188 1.425781 -0.609375 0.78125 -0.546875 L 0.78125 -1.625 C 1.0625 -1.675781 1.28125 -1.773438 1.4375 -1.921875 C 1.664062 -2.160156 1.78125 -2.535156 1.78125 -3.046875 C 1.78125 -3.859375 1.492188 -4.390625 0.921875 -4.640625 C 0.585938 -4.785156 -0.0078125 -4.851562 -0.875 -4.84375 C -0.550781 -4.632812 -0.3125 -4.378906 -0.15625 -4.078125 C 0 -3.785156 0.078125 -3.394531 0.078125 -2.90625 C 0.078125 -2.226562 -0.160156 -1.632812 -0.640625 -1.125 C -1.128906 -0.613281 -1.929688 -0.359375 -3.046875 -0.359375 C -4.097656 -0.359375 -4.914062 -0.613281 -5.5 -1.125 C -6.09375 -1.644531 -6.390625 -2.265625 -6.390625 -2.984375 Z M -3.171875 -4.890625 C -3.941406 -4.890625 -4.515625 -4.726562 -4.890625 -4.40625 C -5.265625 -4.082031 -5.453125 -3.675781 -5.453125 -3.1875 C -5.453125 -2.4375 -5.101562 -1.925781 -4.40625 -1.65625 C -4.039062 -1.507812 -3.554688 -1.4375 -2.953125 -1.4375 C -2.242188 -1.4375 -1.703125 -1.578125 -1.328125 -1.859375 C -0.960938 -2.148438 -0.78125 -2.539062 -0.78125 -3.03125 C -0.78125 -3.789062 -1.125 -4.320312 -1.8125 -4.625 C -2.195312 -4.800781 -2.648438 -4.890625 -3.171875 -4.890625 Z M -6.421875 -3.109375 Z "/>
</symbol>
<symbol overflow="visible" id="32eed4aa-55b8-43e5-9735-8f9460fddd4d">
<path style="stroke:none;" d="M 0 -0.375 C -0.71875 -0.414062 -1.34375 -0.566406 -1.875 -0.828125 C -2.414062 -1.085938 -2.90625 -1.59375 -3.34375 -2.34375 L -4 -3.46875 C -4.289062 -3.96875 -4.539062 -4.320312 -4.75 -4.53125 C -5.070312 -4.851562 -5.441406 -5.015625 -5.859375 -5.015625 C -6.347656 -5.015625 -6.734375 -4.863281 -7.015625 -4.5625 C -7.304688 -4.269531 -7.453125 -3.882812 -7.453125 -3.40625 C -7.453125 -2.675781 -7.179688 -2.175781 -6.640625 -1.90625 C -6.335938 -1.75 -5.929688 -1.664062 -5.421875 -1.65625 L -5.421875 -0.578125 C -6.148438 -0.585938 -6.742188 -0.722656 -7.203125 -0.984375 C -8.015625 -1.441406 -8.421875 -2.25 -8.421875 -3.40625 C -8.421875 -4.363281 -8.160156 -5.0625 -7.640625 -5.5 C -7.117188 -5.945312 -6.539062 -6.171875 -5.90625 -6.171875 C -5.238281 -6.171875 -4.664062 -5.9375 -4.1875 -5.46875 C -3.90625 -5.195312 -3.566406 -4.707031 -3.171875 -4 L -2.734375 -3.1875 C -2.523438 -2.8125 -2.320312 -2.515625 -2.125 -2.296875 C -1.789062 -1.898438 -1.414062 -1.648438 -1 -1.546875 L -1 -6.140625 L 0 -6.140625 Z "/>
</symbol>
</g>
<clipPath id="1a4947e0-e719-4b81-8357-c80290daeb76">
  <path d="M 38.625 14.398438 L 346 14.398438 L 346 324 L 38.625 324 Z "/>
</clipPath>
<clipPath id="b5740e73-a7a5-432d-8e87-ef76d5b307de">
  <path d="M 38.625 273 L 346.597656 273 L 346.597656 275 L 38.625 275 Z "/>
</clipPath>
<clipPath id="3fc0d6c9-07af-49a8-ad57-dd7ee02d0051">
  <path d="M 38.625 203 L 346.597656 203 L 346.597656 205 L 38.625 205 Z "/>
</clipPath>
<clipPath id="d779689d-d647-4ce8-b7a8-464b87d5a1de">
  <path d="M 38.625 133 L 346.597656 133 L 346.597656 135 L 38.625 135 Z "/>
</clipPath>
<clipPath id="9c02cd84-2da3-40d0-aea7-a0d4bf0e6ea0">
  <path d="M 38.625 62 L 346.597656 62 L 346.597656 65 L 38.625 65 Z "/>
</clipPath>
<clipPath id="1c234561-8e6c-4a69-95de-2b4dcd6c098d">
  <path d="M 86 14.398438 L 88 14.398438 L 88 324 L 86 324 Z "/>
</clipPath>
<clipPath id="0599cbb6-ab96-4bd5-94db-cad9b790132d">
  <path d="M 156 14.398438 L 158 14.398438 L 158 324 L 156 324 Z "/>
</clipPath>
<clipPath id="d5add762-2eda-4e20-9a06-b3fd20966ed9">
  <path d="M 226 14.398438 L 228 14.398438 L 228 324 L 226 324 Z "/>
</clipPath>
<clipPath id="ef7f0a8c-241c-4746-9cec-470dcb4de9ac">
  <path d="M 296 14.398438 L 298 14.398438 L 298 324 L 296 324 Z "/>
</clipPath>
<clipPath id="40c8449b-d2ce-41b7-ba12-683592328481">
  <path d="M 38.625 308 L 346 308 L 346 310 L 38.625 310 Z "/>
</clipPath>
<clipPath id="f3f22bdd-d666-471f-a1cb-92189191f0b1">
  <path d="M 38.625 238 L 346 238 L 346 240 L 38.625 240 Z "/>
</clipPath>
<clipPath id="fe21b51a-18ae-496b-9ed9-3b43af4cdeed">
  <path d="M 38.625 168 L 346 168 L 346 169 L 38.625 169 Z "/>
</clipPath>
<clipPath id="563f150b-b3f8-41b0-a691-c733b7fc592d">
  <path d="M 38.625 98 L 346 98 L 346 99 L 38.625 99 Z "/>
</clipPath>
<clipPath id="e2bac67c-18cd-4c85-9563-36f96a87a847">
  <path d="M 38.625 28 L 346 28 L 346 29 L 38.625 29 Z "/>
</clipPath>
<clipPath id="ff1c3022-dd48-469f-a45f-cf8972570871">
  <path d="M 52 14.398438 L 53 14.398438 L 53 324 L 52 324 Z "/>
</clipPath>
<clipPath id="6063a65f-5dcf-4337-b63b-c8591fb3ce55">
  <path d="M 122 14.398438 L 123 14.398438 L 123 324 L 122 324 Z "/>
</clipPath>
<clipPath id="4f4069f4-ac1e-4765-ae21-07b9a21ff9db">
  <path d="M 191 14.398438 L 193 14.398438 L 193 324 L 191 324 Z "/>
</clipPath>
<clipPath id="62ac6875-6b8d-4879-b7e8-72c0797a5642">
  <path d="M 261 14.398438 L 263 14.398438 L 263 324 L 261 324 Z "/>
</clipPath>
<clipPath id="bad5f18b-3cd2-4274-b785-62e3b00308b7">
  <path d="M 331 14.398438 L 332 14.398438 L 332 324 L 331 324 Z "/>
</clipPath>
<clipPath id="e47ae435-33a8-4de2-9ef9-fb574c9179fc">
  <path d="M 38.625 14.398438 L 346.597656 14.398438 L 346.597656 324 L 38.625 324 Z "/>
</clipPath>
</defs>
<g id="ec6fcd46-9b06-4eab-a1f9-cec52877d85f">
<rect x="0" y="0" width="360" height="360" style="fill:rgb(100%,100%,100%);fill-opacity:1;stroke:none;"/>
<rect x="0" y="0" width="360" height="360" style="fill:rgb(100%,100%,100%);fill-opacity:1;stroke:none;"/>
<path style="fill:none;stroke-width:1.062992;stroke-linecap:round;stroke-linejoin:round;stroke:rgb(100%,100%,100%);stroke-opacity:1;stroke-miterlimit:10;" d="M 0 360 L 360 360 L 360 0 L 0 0 Z "/>
<g clip-path="url(#1a4947e0-e719-4b81-8357-c80290daeb76)" clip-rule="nonzero">
<path style=" stroke:none;fill-rule:nonzero;fill:rgb(100%,100%,100%);fill-opacity:1;" d="M 38.625 323.027344 L 345.597656 323.027344 L 345.597656 14.398438 L 38.625 14.398438 Z "/>
</g>
<g clip-path="url(#b5740e73-a7a5-432d-8e87-ef76d5b307de)" clip-rule="nonzero">
<path style="fill:none;stroke-width:1.062992;stroke-linecap:butt;stroke-linejoin:round;stroke:rgb(98.039216%,98.039216%,98.039216%);stroke-opacity:1;stroke-miterlimit:10;" d="M 38.625 273.929688 L 345.601562 273.929688 "/>
</g>
<g clip-path="url(#3fc0d6c9-07af-49a8-ad57-dd7ee02d0051)" clip-rule="nonzero">
<path style="fill:none;stroke-width:1.062992;stroke-linecap:butt;stroke-linejoin:round;stroke:rgb(98.039216%,98.039216%,98.039216%);stroke-opacity:1;stroke-miterlimit:10;" d="M 38.625 203.785156 L 345.601562 203.785156 "/>
</g>
<g clip-path="url(#d779689d-d647-4ce8-b7a8-464b87d5a1de)" clip-rule="nonzero">
<path style="fill:none;stroke-width:1.062992;stroke-linecap:butt;stroke-linejoin:round;stroke:rgb(98.039216%,98.039216%,98.039216%);stroke-opacity:1;stroke-miterlimit:10;" d="M 38.625 133.644531 L 345.601562 133.644531 "/>
</g>
<g clip-path="url(#9c02cd84-2da3-40d0-aea7-a0d4bf0e6ea0)" clip-rule="nonzero">
<path style="fill:none;stroke-width:1.062992;stroke-linecap:butt;stroke-linejoin:round;stroke:rgb(98.039216%,98.039216%,98.039216%);stroke-opacity:1;stroke-miterlimit:10;" d="M 38.625 63.5 L 345.601562 63.5 "/>
</g>
<g clip-path="url(#1c234561-8e6c-4a69-95de-2b4dcd6c098d)" clip-rule="nonzero">
<path style="fill:none;stroke-width:1.062992;stroke-linecap:butt;stroke-linejoin:round;stroke:rgb(98.039216%,98.039216%,98.039216%);stroke-opacity:1;stroke-miterlimit:10;" d="M 87.464844 323.027344 L 87.464844 14.398438 "/>
</g>
<g clip-path="url(#0599cbb6-ab96-4bd5-94db-cad9b790132d)" clip-rule="nonzero">
<path style="fill:none;stroke-width:1.062992;stroke-linecap:butt;stroke-linejoin:round;stroke:rgb(98.039216%,98.039216%,98.039216%);stroke-opacity:1;stroke-miterlimit:10;" d="M 157.230469 323.027344 L 157.230469 14.398438 "/>
</g>
<g clip-path="url(#d5add762-2eda-4e20-9a06-b3fd20966ed9)" clip-rule="nonzero">
<path style="fill:none;stroke-width:1.062992;stroke-linecap:butt;stroke-linejoin:round;stroke:rgb(98.039216%,98.039216%,98.039216%);stroke-opacity:1;stroke-miterlimit:10;" d="M 226.996094 323.027344 L 226.996094 14.398438 "/>
</g>
<g clip-path="url(#ef7f0a8c-241c-4746-9cec-470dcb4de9ac)" clip-rule="nonzero">
<path style="fill:none;stroke-width:1.062992;stroke-linecap:butt;stroke-linejoin:round;stroke:rgb(98.039216%,98.039216%,98.039216%);stroke-opacity:1;stroke-miterlimit:10;" d="M 296.761719 323.027344 L 296.761719 14.398438 "/>
</g>
<g clip-path="url(#40c8449b-d2ce-41b7-ba12-683592328481)" clip-rule="nonzero">
<path style="fill:none;stroke-width:0.425197;stroke-linecap:butt;stroke-linejoin:round;stroke:rgb(89.803922%,89.803922%,89.803922%);stroke-opacity:1;stroke-miterlimit:10;" d="M 38.625 309 L 345.601562 309 "/>
</g>
<g clip-path="url(#f3f22bdd-d666-471f-a1cb-92189191f0b1)" clip-rule="nonzero">
<path style="fill:none;stroke-width:0.425197;stroke-linecap:butt;stroke-linejoin:round;stroke:rgb(89.803922%,89.803922%,89.803922%);stroke-opacity:1;stroke-miterlimit:10;" d="M 38.625 238.859375 L 345.601562 238.859375 "/>
</g>
<g clip-path="url(#fe21b51a-18ae-496b-9ed9-3b43af4cdeed)" clip-rule="nonzero">
<path style="fill:none;stroke-width:0.425197;stroke-linecap:butt;stroke-linejoin:round;stroke:rgb(89.803922%,89.803922%,89.803922%);stroke-opacity:1;stroke-miterlimit:10;" d="M 38.625 168.714844 L 345.601562 168.714844 "/>
</g>
<g clip-path="url(#563f150b-b3f8-41b0-a691-c733b7fc592d)" clip-rule="nonzero">
<path style="fill:none;stroke-width:0.425197;stroke-linecap:butt;stroke-linejoin:round;stroke:rgb(89.803922%,89.803922%,89.803922%);stroke-opacity:1;stroke-miterlimit:10;" d="M 38.625 98.570312 L 345.601562 98.570312 "/>
</g>
<g clip-path="url(#e2bac67c-18cd-4c85-9563-36f96a87a847)" clip-rule="nonzero">
<path style="fill:none;stroke-width:0.425197;stroke-linecap:butt;stroke-linejoin:round;stroke:rgb(89.803922%,89.803922%,89.803922%);stroke-opacity:1;stroke-miterlimit:10;" d="M 38.625 28.429688 L 345.601562 28.429688 "/>
</g>
<g clip-path="url(#ff1c3022-dd48-469f-a45f-cf8972570871)" clip-rule="nonzero">
<path style="fill:none;stroke-width:0.425197;stroke-linecap:butt;stroke-linejoin:round;stroke:rgb(89.803922%,89.803922%,89.803922%);stroke-opacity:1;stroke-miterlimit:10;" d="M 52.578125 323.027344 L 52.578125 14.398438 "/>
</g>
<g clip-path="url(#6063a65f-5dcf-4337-b63b-c8591fb3ce55)" clip-rule="nonzero">
<path style="fill:none;stroke-width:0.425197;stroke-linecap:butt;stroke-linejoin:round;stroke:rgb(89.803922%,89.803922%,89.803922%);stroke-opacity:1;stroke-miterlimit:10;" d="M 122.347656 323.027344 L 122.347656 14.398438 "/>
</g>
<g clip-path="url(#4f4069f4-ac1e-4765-ae21-07b9a21ff9db)" clip-rule="nonzero">
<path style="fill:none;stroke-width:0.425197;stroke-linecap:butt;stroke-linejoin:round;stroke:rgb(89.803922%,89.803922%,89.803922%);stroke-opacity:1;stroke-miterlimit:10;" d="M 192.113281 323.027344 L 192.113281 14.398438 "/>
</g>
<g clip-path="url(#62ac6875-6b8d-4879-b7e8-72c0797a5642)" clip-rule="nonzero">
<path style="fill:none;stroke-width:0.425197;stroke-linecap:butt;stroke-linejoin:round;stroke:rgb(89.803922%,89.803922%,89.803922%);stroke-opacity:1;stroke-miterlimit:10;" d="M 261.878906 323.027344 L 261.878906 14.398438 "/>
</g>
<g clip-path="url(#bad5f18b-3cd2-4274-b785-62e3b00308b7)" clip-rule="nonzero">
<path style="fill:none;stroke-width:0.425197;stroke-linecap:butt;stroke-linejoin:round;stroke:rgb(89.803922%,89.803922%,89.803922%);stroke-opacity:1;stroke-miterlimit:10;" d="M 331.648438 323.027344 L 331.648438 14.398438 "/>
</g>
<path style=" stroke:none;fill-rule:nonzero;fill:rgb(27.45098%,50.980392%,70.588235%);fill-opacity:1;" d="M 205.898438 127.699219 C 205.898438 133.371094 197.394531 133.371094 197.394531 127.699219 C 197.394531 122.03125 205.898438 122.03125 205.898438 127.699219 "/>
<path style=" stroke:none;fill-rule:nonzero;fill:rgb(27.45098%,50.980392%,70.588235%);fill-opacity:1;" d="M 97.136719 109.566406 C 97.136719 115.238281 88.632812 115.238281 88.632812 109.566406 C 88.632812 103.898438 97.136719 103.898438 97.136719 109.566406 "/>
<path style=" stroke:none;fill-rule:nonzero;fill:rgb(27.45098%,50.980392%,70.588235%);fill-opacity:1;" d="M 124.53125 71.367188 C 124.53125 77.035156 116.027344 77.035156 116.027344 71.367188 C 116.027344 65.695312 124.53125 65.695312 124.53125 71.367188 "/>
<path style=" stroke:none;fill-rule:nonzero;fill:rgb(27.45098%,50.980392%,70.588235%);fill-opacity:1;" d="M 220.578125 174.203125 C 220.578125 179.875 212.074219 179.875 212.074219 174.203125 C 212.074219 168.535156 220.578125 168.535156 220.578125 174.203125 "/>
<path style=" stroke:none;fill-rule:nonzero;fill:rgb(27.45098%,50.980392%,70.588235%);fill-opacity:1;" d="M 275.421875 242.347656 C 275.421875 248.015625 266.917969 248.015625 266.917969 242.347656 C 266.917969 236.675781 275.421875 236.675781 275.421875 242.347656 "/>
<path style=" stroke:none;fill-rule:nonzero;fill:rgb(27.45098%,50.980392%,70.588235%);fill-opacity:1;" d="M 241.25 243.992188 C 241.25 249.660156 232.746094 249.660156 232.746094 243.992188 C 232.746094 238.320312 241.25 238.320312 241.25 243.992188 "/>
<path style=" stroke:none;fill-rule:nonzero;fill:rgb(27.45098%,50.980392%,70.588235%);fill-opacity:1;" d="M 205.640625 220.714844 C 205.640625 226.382812 197.136719 226.382812 197.136719 220.714844 C 197.136719 215.042969 205.640625 215.042969 205.640625 220.714844 "/>
<path style=" stroke:none;fill-rule:nonzero;fill:rgb(27.45098%,50.980392%,70.588235%);fill-opacity:1;" d="M 260.429688 178.078125 C 260.429688 183.75 251.925781 183.75 251.925781 178.078125 C 251.925781 172.410156 260.429688 172.410156 260.429688 178.078125 "/>
<path style=" stroke:none;fill-rule:nonzero;fill:rgb(27.45098%,50.980392%,70.588235%);fill-opacity:1;" d="M 193.285156 135.773438 C 193.285156 141.441406 184.78125 141.441406 184.78125 135.773438 C 184.78125 130.105469 193.285156 130.105469 193.285156 135.773438 "/>
<path style=" stroke:none;fill-rule:nonzero;fill:rgb(27.45098%,50.980392%,70.588235%);fill-opacity:1;" d="M 113.449219 168.84375 C 113.449219 174.511719 104.945312 174.511719 104.945312 168.84375 C 104.945312 163.175781 113.449219 163.175781 113.449219 168.84375 "/>
<path style=" stroke:none;fill-rule:nonzero;fill:rgb(27.45098%,50.980392%,70.588235%);fill-opacity:1;" d="M 233.496094 90.703125 C 233.496094 96.375 224.992188 96.375 224.992188 90.703125 C 224.992188 85.035156 233.496094 85.035156 233.496094 90.703125 "/>
<path style=" stroke:none;fill-rule:nonzero;fill:rgb(27.45098%,50.980392%,70.588235%);fill-opacity:1;" d="M 148.429688 135.746094 C 148.429688 141.414062 139.925781 141.414062 139.925781 135.746094 C 139.925781 130.074219 148.429688 130.074219 148.429688 135.746094 "/>
<path style=" stroke:none;fill-rule:nonzero;fill:rgb(27.45098%,50.980392%,70.588235%);fill-opacity:1;" d="M 327.671875 179.109375 C 327.671875 184.777344 319.167969 184.777344 319.167969 179.109375 C 319.167969 173.441406 327.671875 173.441406 327.671875 179.109375 "/>
<path style=" stroke:none;fill-rule:nonzero;fill:rgb(27.45098%,50.980392%,70.588235%);fill-opacity:1;" d="M 158.296875 119.570312 C 158.296875 125.238281 149.792969 125.238281 149.792969 119.570312 C 149.792969 113.902344 158.296875 113.902344 158.296875 119.570312 "/>
<path style=" stroke:none;fill-rule:nonzero;fill:rgb(27.45098%,50.980392%,70.588235%);fill-opacity:1;" d="M 177.273438 183.894531 C 177.273438 189.566406 168.769531 189.566406 168.769531 183.894531 C 168.769531 178.226562 177.273438 178.226562 177.273438 183.894531 "/>
<path style=" stroke:none;fill-rule:nonzero;fill:rgb(27.45098%,50.980392%,70.588235%);fill-opacity:1;" d="M 208.617188 110.71875 C 208.617188 116.390625 200.113281 116.390625 200.113281 110.71875 C 200.113281 105.050781 208.617188 105.050781 208.617188 110.71875 "/>
<path style=" stroke:none;fill-rule:nonzero;fill:rgb(27.45098%,50.980392%,70.588235%);fill-opacity:1;" d="M 224.632812 135.308594 C 224.632812 140.976562 216.128906 140.976562 216.128906 135.308594 C 216.128906 129.636719 224.632812 129.636719 224.632812 135.308594 "/>
<path style=" stroke:none;fill-rule:nonzero;fill:rgb(27.45098%,50.980392%,70.588235%);fill-opacity:1;" d="M 110.949219 90.835938 C 110.949219 96.503906 102.445312 96.503906 102.445312 90.835938 C 102.445312 85.167969 110.949219 85.167969 110.949219 90.835938 "/>
<path style=" stroke:none;fill-rule:nonzero;fill:rgb(27.45098%,50.980392%,70.588235%);fill-opacity:1;" d="M 210.726562 275.214844 C 210.726562 280.882812 202.222656 280.882812 202.222656 275.214844 C 202.222656 269.542969 210.726562 269.542969 210.726562 275.214844 "/>
<path style=" stroke:none;fill-rule:nonzero;fill:rgb(27.45098%,50.980392%,70.588235%);fill-opacity:1;" d="M 123.945312 206.257812 C 123.945312 211.929688 115.441406 211.929688 115.441406 206.257812 C 115.441406 200.589844 123.945312 200.589844 123.945312 206.257812 "/>
<path style=" stroke:none;fill-rule:nonzero;fill:rgb(27.45098%,50.980392%,70.588235%);fill-opacity:1;" d="M 178.785156 114.875 C 178.785156 120.546875 170.28125 120.546875 170.28125 114.875 C 170.28125 109.207031 178.785156 109.207031 178.785156 114.875 "/>
<path style=" stroke:none;fill-rule:nonzero;fill:rgb(27.45098%,50.980392%,70.588235%);fill-opacity:1;" d="M 185.261719 235.960938 C 185.261719 241.628906 176.757812 241.628906 176.757812 235.960938 C 176.757812 230.292969 185.261719 230.292969 185.261719 235.960938 "/>
<path style=" stroke:none;fill-rule:nonzero;fill:rgb(27.45098%,50.980392%,70.588235%);fill-opacity:1;" d="M 240.925781 233.414062 C 240.925781 239.082031 232.421875 239.082031 232.421875 233.414062 C 232.421875 227.742188 240.925781 227.742188 240.925781 233.414062 "/>
<path style=" stroke:none;fill-rule:nonzero;fill:rgb(27.45098%,50.980392%,70.588235%);fill-opacity:1;" d="M 186.429688 234.113281 C 186.429688 239.785156 177.925781 239.785156 177.925781 234.113281 C 177.925781 228.445312 186.429688 228.445312 186.429688 234.113281 "/>
<path style=" stroke:none;fill-rule:nonzero;fill:rgb(27.45098%,50.980392%,70.588235%);fill-opacity:1;" d="M 213.851562 131.378906 C 213.851562 137.050781 205.347656 137.050781 205.347656 131.378906 C 205.347656 125.710938 213.851562 125.710938 213.851562 131.378906 "/>
<path style=" stroke:none;fill-rule:nonzero;fill:rgb(27.45098%,50.980392%,70.588235%);fill-opacity:1;" d="M 240.839844 168.167969 C 240.839844 173.835938 232.335938 173.835938 232.335938 168.167969 C 232.335938 162.496094 240.839844 162.496094 240.839844 168.167969 "/>
<path style=" stroke:none;fill-rule:nonzero;fill:rgb(27.45098%,50.980392%,70.588235%);fill-opacity:1;" d="M 255.375 93.246094 C 255.375 98.914062 246.871094 98.914062 246.871094 93.246094 C 246.871094 87.578125 255.375 87.578125 255.375 93.246094 "/>
<path style=" stroke:none;fill-rule:nonzero;fill:rgb(27.45098%,50.980392%,70.588235%);fill-opacity:1;" d="M 206.09375 198.269531 C 206.09375 203.941406 197.589844 203.941406 197.589844 198.269531 C 197.589844 192.601562 206.09375 192.601562 206.09375 198.269531 "/>
<path style=" stroke:none;fill-rule:nonzero;fill:rgb(27.45098%,50.980392%,70.588235%);fill-opacity:1;" d="M 238.574219 168.4375 C 238.574219 174.105469 230.070312 174.105469 230.070312 168.4375 C 230.070312 162.769531 238.574219 162.769531 238.574219 168.4375 "/>
<path style=" stroke:none;fill-rule:nonzero;fill:rgb(27.45098%,50.980392%,70.588235%);fill-opacity:1;" d="M 196.742188 198.1875 C 196.742188 203.859375 188.238281 203.859375 188.238281 198.1875 C 188.238281 192.519531 196.742188 192.519531 196.742188 198.1875 "/>
<path style=" stroke:none;fill-rule:nonzero;fill:rgb(27.45098%,50.980392%,70.588235%);fill-opacity:1;" d="M 180.25 167.125 C 180.25 172.796875 171.746094 172.796875 171.746094 167.125 C 171.746094 161.457031 180.25 161.457031 180.25 167.125 "/>
<path style=" stroke:none;fill-rule:nonzero;fill:rgb(27.45098%,50.980392%,70.588235%);fill-opacity:1;" d="M 192.199219 53.898438 C 192.199219 59.570312 183.695312 59.570312 183.695312 53.898438 C 183.695312 48.230469 192.199219 48.230469 192.199219 53.898438 "/>
<path style=" stroke:none;fill-rule:nonzero;fill:rgb(27.45098%,50.980392%,70.588235%);fill-opacity:1;" d="M 219.886719 79.1875 C 219.886719 84.855469 211.382812 84.855469 211.382812 79.1875 C 211.382812 73.519531 219.886719 73.519531 219.886719 79.1875 "/>
<path style=" stroke:none;fill-rule:nonzero;fill:rgb(27.45098%,50.980392%,70.588235%);fill-opacity:1;" d="M 215.054688 113.585938 C 215.054688 119.257812 206.550781 119.257812 206.550781 113.585938 C 206.550781 107.917969 215.054688 107.917969 215.054688 113.585938 "/>
<path style=" stroke:none;fill-rule:nonzero;fill:rgb(27.45098%,50.980392%,70.588235%);fill-opacity:1;" d="M 169.1875 276.652344 C 169.1875 282.320312 160.683594 282.320312 160.683594 276.652344 C 160.683594 270.980469 169.1875 270.980469 169.1875 276.652344 "/>
<path style=" stroke:none;fill-rule:nonzero;fill:rgb(27.45098%,50.980392%,70.588235%);fill-opacity:1;" d="M 193.363281 288.066406 C 193.363281 293.734375 184.859375 293.734375 184.859375 288.066406 C 184.859375 282.398438 193.363281 282.398438 193.363281 288.066406 "/>
<path style=" stroke:none;fill-rule:nonzero;fill:rgb(27.45098%,50.980392%,70.588235%);fill-opacity:1;" d="M 195.351562 98.824219 C 195.351562 104.492188 186.847656 104.492188 186.847656 98.824219 C 186.847656 93.152344 195.351562 93.152344 195.351562 98.824219 "/>
<path style=" stroke:none;fill-rule:nonzero;fill:rgb(27.45098%,50.980392%,70.588235%);fill-opacity:1;" d="M 117.679688 88.523438 C 117.679688 94.191406 109.175781 94.191406 109.175781 88.523438 C 109.175781 82.851562 117.679688 82.851562 117.679688 88.523438 "/>
<path style=" stroke:none;fill-rule:nonzero;fill:rgb(27.45098%,50.980392%,70.588235%);fill-opacity:1;" d="M 280.601562 80.539062 C 280.601562 86.210938 272.097656 86.210938 272.097656 80.539062 C 272.097656 74.871094 280.601562 74.871094 280.601562 80.539062 "/>
<path style=" stroke:none;fill-rule:nonzero;fill:rgb(27.45098%,50.980392%,70.588235%);fill-opacity:1;" d="M 125.019531 275.164062 C 125.019531 280.832031 116.515625 280.832031 116.515625 275.164062 C 116.515625 269.492188 125.019531 269.492188 125.019531 275.164062 "/>
<path style=" stroke:none;fill-rule:nonzero;fill:rgb(27.45098%,50.980392%,70.588235%);fill-opacity:1;" d="M 256.90625 142.265625 C 256.90625 147.933594 248.402344 147.933594 248.402344 142.265625 C 248.402344 136.59375 256.90625 136.59375 256.90625 142.265625 "/>
<path style=" stroke:none;fill-rule:nonzero;fill:rgb(27.45098%,50.980392%,70.588235%);fill-opacity:1;" d="M 241.691406 161.410156 C 241.691406 167.078125 233.1875 167.078125 233.1875 161.410156 C 233.1875 155.738281 241.691406 155.738281 241.691406 161.410156 "/>
<path style=" stroke:none;fill-rule:nonzero;fill:rgb(27.45098%,50.980392%,70.588235%);fill-opacity:1;" d="M 190.25 55.699219 C 190.25 61.371094 181.746094 61.371094 181.746094 55.699219 C 181.746094 50.03125 190.25 50.03125 190.25 55.699219 "/>
<path style=" stroke:none;fill-rule:nonzero;fill:rgb(27.45098%,50.980392%,70.588235%);fill-opacity:1;" d="M 259.128906 173.574219 C 259.128906 179.242188 250.625 179.242188 250.625 173.574219 C 250.625 167.902344 259.128906 167.902344 259.128906 173.574219 "/>
<path style=" stroke:none;fill-rule:nonzero;fill:rgb(27.45098%,50.980392%,70.588235%);fill-opacity:1;" d="M 260.078125 195.71875 C 260.078125 201.390625 251.574219 201.390625 251.574219 195.71875 C 251.574219 190.050781 260.078125 190.050781 260.078125 195.71875 "/>
<path style=" stroke:none;fill-rule:nonzero;fill:rgb(27.45098%,50.980392%,70.588235%);fill-opacity:1;" d="M 151.34375 116.652344 C 151.34375 122.320312 142.839844 122.320312 142.839844 116.652344 C 142.839844 110.980469 151.34375 110.980469 151.34375 116.652344 "/>
<path style=" stroke:none;fill-rule:nonzero;fill:rgb(27.45098%,50.980392%,70.588235%);fill-opacity:1;" d="M 64.0625 121.578125 C 64.0625 127.246094 55.558594 127.246094 55.558594 121.578125 C 55.558594 115.910156 64.0625 115.910156 64.0625 121.578125 "/>
<path style="fill:none;stroke-width:1.062992;stroke-linecap:butt;stroke-linejoin:round;stroke:rgb(100%,16.078431%,82.352941%);stroke-opacity:1;stroke-miterlimit:1;" d="M 141.125 309 L 139.964844 308.476562 L 137.144531 307.28125 L 134.429688 306.167969 L 134.328125 306.125 L 131.507812 304.992188 L 128.6875 303.839844 L 127.496094 303.332031 L 125.871094 302.613281 L 123.050781 301.257812 L 121.636719 300.5 L 120.230469 299.695312 L 117.414062 297.839844 L 117.175781 297.664062 L 114.59375 295.546875 L 113.835938 294.832031 L 111.777344 292.644531 L 111.238281 291.996094 L 109.191406 289.160156 L 108.957031 288.785156 L 107.582031 286.328125 L 106.28125 283.492188 L 106.136719 283.109375 L 105.277344 280.660156 L 104.496094 277.824219 L 103.90625 274.992188 L 103.480469 272.15625 L 103.320312 270.589844 L 103.195312 269.324219 L 103.023438 266.488281 L 102.941406 263.65625 L 102.917969 260.820312 L 102.925781 257.988281 L 102.9375 255.152344 L 102.921875 252.320312 L 102.847656 249.484375 L 102.6875 246.652344 L 102.417969 243.816406 L 102.019531 240.984375 L 101.480469 238.148438 L 100.804688 235.316406 L 100.5 234.265625 L 100.003906 232.480469 L 99.097656 229.648438 L 98.101562 226.8125 L 97.679688 225.714844 L 97.042969 223.980469 L 95.949219 221.144531 L 94.863281 218.375 L 94.839844 218.308594 L 93.726562 215.476562 L 92.636719 212.640625 L 92.042969 211.082031 L 91.566406 209.808594 L 90.527344 206.972656 L 89.527344 204.140625 L 89.226562 203.257812 L 88.550781 201.304688 L 87.605469 198.472656 L 86.691406 195.636719 L 86.40625 194.734375 L 85.777344 192.804688 L 84.863281 189.96875 L 83.949219 187.136719 L 83.585938 186.035156 L 82.984375 184.300781 L 81.960938 181.46875 L 80.875 178.632812 L 80.769531 178.367188 L 79.628906 175.800781 L 78.253906 172.964844 L 77.949219 172.394531 L 76.628906 170.132812 L 75.128906 167.816406 L 74.757812 167.296875 L 72.539062 164.464844 L 72.3125 164.195312 L 69.921875 161.628906 L 69.492188 161.199219 L 66.917969 158.796875 L 66.675781 158.578125 L 63.855469 156.167969 L 63.605469 155.960938 L 61.035156 153.839844 L 60.1875 153.128906 L 58.21875 151.453125 L 56.910156 150.292969 L 55.398438 148.894531 L 53.941406 147.460938 L 52.578125 146.011719 "/>
<path style="fill:none;stroke-width:1.062992;stroke-linecap:butt;stroke-linejoin:round;stroke:rgb(100%,16.078431%,82.352941%);stroke-opacity:1;stroke-miterlimit:1;" d="M 52.578125 89.285156 L 53.4375 87.945312 L 55.398438 85.121094 L 55.40625 85.109375 L 57.394531 82.277344 L 58.21875 81.167969 L 59.441406 79.441406 L 61.035156 77.3125 L 61.539062 76.609375 L 63.644531 73.773438 L 63.855469 73.5 L 65.730469 70.941406 L 66.675781 69.710938 L 67.851562 68.105469 L 69.492188 65.972656 L 70.015625 65.269531 L 72.222656 62.4375 L 72.3125 62.324219 L 74.457031 59.601562 L 75.128906 58.789062 L 76.796875 56.769531 L 77.949219 55.4375 L 79.265625 53.933594 L 80.769531 52.296875 L 81.902344 51.101562 L 83.585938 49.390625 L 84.761719 48.265625 L 86.40625 46.734375 L 87.921875 45.433594 L 89.226562 44.332031 L 91.511719 42.597656 L 92.042969 42.199219 L 94.863281 40.300781 L 95.78125 39.765625 L 97.679688 38.640625 L 100.5 37.242188 L 101.257812 36.929688 L 103.320312 36.046875 L 106.136719 35.082031 L 108.957031 34.355469 L 110.351562 34.097656 L 111.777344 33.8125 L 114.59375 33.453125 L 117.414062 33.28125 L 120.230469 33.277344 L 123.050781 33.417969 L 125.871094 33.675781 L 128.6875 34.011719 L 129.351562 34.097656 L 131.507812 34.359375 L 134.328125 34.675781 L 137.144531 34.894531 L 139.964844 34.9375 L 142.78125 34.722656 L 145.601562 34.179688 L 145.867188 34.097656 L 148.421875 33.21875 L 151.238281 31.878906 L 152.273438 31.261719 L 154.058594 30.164062 L 156.542969 28.429688 "/>
<path style="fill:none;stroke-width:1.062992;stroke-linecap:butt;stroke-linejoin:round;stroke:rgb(100%,16.078431%,82.352941%);stroke-opacity:1;stroke-miterlimit:1;" d="M 224.828125 309 L 227.347656 306.875 L 228.179688 306.167969 L 230.167969 304.476562 L 231.519531 303.332031 L 232.988281 302.109375 L 234.949219 300.5 L 235.804688 299.816406 L 238.578125 297.664062 L 238.625 297.628906 L 241.441406 295.621094 L 242.597656 294.832031 L 244.261719 293.734375 L 247.003906 291.996094 L 247.082031 291.949219 L 249.898438 290.320312 L 251.9375 289.160156 L 252.71875 288.734375 L 255.539062 287.226562 L 257.207031 286.328125 L 258.355469 285.726562 L 261.175781 284.226562 L 262.5 283.492188 L 263.992188 282.679688 L 266.8125 281.046875 L 267.449219 280.660156 L 269.632812 279.316406 L 271.84375 277.824219 L 272.449219 277.40625 L 275.269531 275.292969 L 275.644531 274.992188 L 278.089844 272.917969 L 278.910156 272.15625 L 280.90625 270.1875 L 281.71875 269.324219 L 283.726562 267 L 284.140625 266.488281 L 286.242188 263.65625 L 286.546875 263.207031 L 288.089844 260.820312 L 289.363281 258.578125 L 289.695312 257.988281 L 291.125 255.152344 L 292.183594 252.75 L 292.375 252.320312 L 293.523438 249.484375 L 294.535156 246.652344 L 295 245.199219 L 295.472656 243.816406 L 296.355469 240.984375 L 297.175781 238.148438 L 297.820312 235.777344 L 297.960938 235.316406 L 298.792969 232.480469 L 299.617188 229.648438 L 300.453125 226.8125 L 300.640625 226.199219 L 301.421875 223.980469 L 302.46875 221.144531 L 303.457031 218.625 L 303.609375 218.308594 L 305.035156 215.476562 L 306.277344 213.171875 L 306.636719 212.640625 L 308.675781 209.808594 L 309.097656 209.253906 L 311.324219 206.972656 L 311.914062 206.390625 L 314.734375 204.230469 L 314.878906 204.140625 L 317.550781 202.457031 L 319.601562 201.304688 L 320.371094 200.859375 L 323.191406 199.195312 L 324.300781 198.472656 L 326.007812 197.253906 L 327.945312 195.636719 L 328.828125 194.789062 L 330.566406 192.804688 L 331.648438 191.296875 "/>
<path style="fill:none;stroke-width:1.062992;stroke-linecap:butt;stroke-linejoin:round;stroke:rgb(100%,16.078431%,82.352941%);stroke-opacity:1;stroke-miterlimit:1;" d="M 331.648438 167.484375 L 331.519531 167.296875 L 329.082031 164.464844 L 328.828125 164.21875 L 326.007812 162.019531 L 325.382812 161.628906 L 323.191406 160.421875 L 320.371094 159.140625 L 319.53125 158.796875 L 317.550781 158.035156 L 314.734375 156.886719 L 312.886719 155.960938 L 311.914062 155.484375 L 309.097656 153.632812 L 308.539062 153.128906 L 306.277344 151.070312 L 305.648438 150.292969 L 303.457031 147.542969 L 303.40625 147.460938 L 301.746094 144.625 L 300.640625 142.636719 L 300.265625 141.789062 L 299.101562 138.957031 L 298.046875 136.121094 L 297.820312 135.429688 L 297.242188 133.289062 L 296.597656 130.453125 L 296.082031 127.621094 L 295.710938 124.785156 L 295.480469 121.953125 L 295.386719 119.117188 L 295.417969 116.285156 L 295.554688 113.449219 L 295.777344 110.617188 L 296.054688 107.78125 L 296.367188 104.949219 L 296.6875 102.113281 L 296.996094 99.28125 L 297.261719 96.445312 L 297.472656 93.613281 L 297.609375 90.777344 L 297.652344 87.945312 L 297.589844 85.109375 L 297.402344 82.277344 L 297.078125 79.441406 L 296.597656 76.609375 L 295.933594 73.773438 L 295.074219 70.941406 L 295 70.746094 L 294.015625 68.105469 L 292.695312 65.269531 L 292.183594 64.335938 L 291.089844 62.4375 L 289.363281 59.914062 L 289.132812 59.601562 L 286.746094 56.769531 L 286.546875 56.554688 L 283.792969 53.933594 L 283.726562 53.878906 L 280.90625 51.6875 L 280.035156 51.101562 L 278.089844 49.863281 L 275.269531 48.339844 L 275.117188 48.265625 L 272.449219 47.019531 L 269.632812 45.890625 L 268.359375 45.433594 L 266.8125 44.878906 L 263.992188 43.949219 L 261.175781 43.089844 L 259.515625 42.597656 L 258.355469 42.246094 L 255.539062 41.375 L 252.71875 40.492188 L 250.484375 39.765625 L 249.898438 39.566406 L 247.082031 38.53125 L 244.261719 37.441406 L 243.023438 36.929688 L 241.441406 36.242188 L 238.625 34.945312 L 236.867188 34.097656 L 235.804688 33.554688 L 232.988281 32.054688 L 231.539062 31.261719 L 230.167969 30.476562 L 227.347656 28.832031 L 226.667969 28.429688 "/>
<path style="fill:none;stroke-width:1.062992;stroke-linecap:butt;stroke-linejoin:round;stroke:rgb(100%,16.078431%,82.352941%);stroke-opacity:1;stroke-miterlimit:1;" d="M 66.675781 122.671875 L 66.398438 121.953125 L 65.632812 119.117188 L 65.207031 116.285156 L 65.078125 113.449219 L 65.21875 110.617188 L 65.597656 107.78125 L 66.191406 104.949219 L 66.675781 103.230469 L 66.96875 102.113281 L 67.886719 99.28125 L 68.960938 96.445312 L 69.492188 95.214844 L 70.140625 93.613281 L 71.425781 90.777344 L 72.3125 89.003906 L 72.808594 87.945312 L 74.265625 85.109375 L 75.128906 83.5625 L 75.816406 82.277344 L 77.453125 79.441406 L 77.949219 78.644531 L 79.179688 76.609375 L 80.769531 74.175781 L 81.027344 73.773438 L 82.992188 70.941406 L 83.585938 70.136719 L 85.121094 68.105469 L 86.40625 66.515625 L 87.453125 65.269531 L 89.226562 63.292969 L 90.042969 62.4375 L 92.042969 60.457031 L 92.992188 59.601562 L 94.863281 57.992188 L 96.46875 56.769531 L 97.679688 55.875 L 100.5 54.101562 L 100.816406 53.933594 L 103.320312 52.628906 L 106.136719 51.476562 L 107.355469 51.101562 L 108.957031 50.601562 L 111.777344 50 L 114.59375 49.667969 L 117.414062 49.582031 L 120.230469 49.730469 L 123.050781 50.089844 L 125.871094 50.632812 L 127.804688 51.101562 L 128.6875 51.316406 L 131.507812 52.082031 L 134.328125 52.878906 L 137.144531 53.640625 L 138.503906 53.933594 L 139.964844 54.253906 L 142.78125 54.632812 L 145.601562 54.695312 L 148.421875 54.355469 L 149.925781 53.933594 L 151.238281 53.546875 L 154.058594 52.222656 L 155.832031 51.101562 L 156.878906 50.417969 L 159.59375 48.265625 L 159.695312 48.183594 L 162.515625 45.644531 L 162.734375 45.433594 L 165.335938 42.976562 L 165.726562 42.597656 L 168.152344 40.355469 L 168.816406 39.765625 L 170.972656 37.921875 L 172.242188 36.929688 L 173.789062 35.769531 L 176.371094 34.097656 L 176.609375 33.949219 L 179.429688 32.457031 L 182.246094 31.324219 L 182.464844 31.261719 L 185.066406 30.507812 L 187.886719 30.015625 L 190.703125 29.824219 L 193.523438 29.921875 L 196.339844 30.289062 L 199.160156 30.910156 L 200.324219 31.261719 L 201.980469 31.746094 L 204.796875 32.785156 L 207.617188 34.019531 L 207.769531 34.097656 L 210.4375 35.371094 L 213.253906 36.867188 L 213.363281 36.929688 L 216.074219 38.410156 L 218.410156 39.765625 L 218.890625 40.035156 L 221.710938 41.65625 L 223.3125 42.597656 L 224.53125 43.292969 L 227.347656 44.910156 L 228.265625 45.433594 L 230.167969 46.488281 L 232.988281 48.046875 L 233.394531 48.265625 L 235.804688 49.535156 L 238.625 51.007812 L 238.808594 51.101562 L 241.441406 52.410156 L 244.261719 53.800781 L 244.546875 53.933594 L 247.082031 55.140625 L 249.898438 56.484375 L 250.515625 56.769531 L 252.71875 57.820312 L 255.539062 59.1875 L 256.382812 59.601562 L 258.355469 60.617188 L 261.175781 62.152344 L 261.671875 62.4375 L 263.992188 63.859375 L 266.089844 65.269531 L 266.8125 65.8125 L 269.605469 68.105469 L 269.632812 68.128906 L 272.367188 70.941406 L 272.449219 71.039062 L 274.523438 73.773438 L 275.269531 74.976562 L 276.207031 76.609375 L 277.5 79.441406 L 278.089844 81.101562 L 278.480469 82.277344 L 279.207031 85.109375 L 279.714844 87.945312 L 280.050781 90.777344 L 280.246094 93.613281 L 280.335938 96.445312 L 280.355469 99.28125 L 280.328125 102.113281 L 280.289062 104.949219 L 280.261719 107.78125 L 280.265625 110.617188 L 280.324219 113.449219 L 280.445312 116.285156 L 280.640625 119.117188 L 280.90625 121.851562 L 280.917969 121.953125 L 281.300781 124.785156 L 281.761719 127.621094 L 282.289062 130.453125 L 282.878906 133.289062 L 283.507812 136.121094 L 283.726562 137.050781 L 284.214844 138.957031 L 284.964844 141.789062 L 285.710938 144.625 L 286.449219 147.460938 L 286.546875 147.839844 L 287.246094 150.292969 L 288.015625 153.128906 L 288.734375 155.960938 L 289.363281 158.671875 L 289.398438 158.796875 L 290.089844 161.628906 L 290.695312 164.464844 L 291.207031 167.296875 L 291.621094 170.132812 L 291.933594 172.964844 L 292.140625 175.800781 L 292.183594 176.960938 L 292.253906 178.632812 L 292.25 181.46875 L 292.183594 182.980469 L 292.132812 184.300781 L 291.921875 187.136719 L 291.617188 189.96875 L 291.222656 192.804688 L 290.742188 195.636719 L 290.191406 198.472656 L 289.574219 201.304688 L 289.363281 202.21875 L 288.964844 204.140625 L 288.34375 206.972656 L 287.6875 209.808594 L 287.007812 212.640625 L 286.546875 214.53125 L 286.328125 215.476562 L 285.671875 218.308594 L 284.992188 221.144531 L 284.289062 223.980469 L 283.726562 226.167969 L 283.5625 226.8125 L 282.828125 229.648438 L 282.03125 232.480469 L 281.15625 235.316406 L 280.90625 236.066406 L 280.210938 238.148438 L 279.152344 240.984375 L 278.089844 243.488281 L 277.945312 243.816406 L 276.578125 246.652344 L 275.269531 249.015625 L 274.996094 249.484375 L 273.167969 252.320312 L 272.449219 253.3125 L 271.035156 255.152344 L 269.632812 256.792969 L 268.535156 257.988281 L 266.8125 259.703125 L 265.59375 260.820312 L 263.992188 262.195312 L 262.144531 263.65625 L 261.175781 264.382812 L 258.355469 266.34375 L 258.132812 266.488281 L 255.539062 268.140625 L 253.5625 269.324219 L 252.71875 269.824219 L 249.898438 271.4375 L 248.613281 272.15625 L 247.082031 273.019531 L 244.261719 274.605469 L 243.585938 274.992188 L 241.441406 276.242188 L 238.808594 277.824219 L 238.625 277.9375 L 235.804688 279.753906 L 234.46875 280.660156 L 232.988281 281.691406 L 230.519531 283.492188 L 230.167969 283.757812 L 227.347656 285.96875 L 226.90625 286.328125 L 224.53125 288.296875 L 223.503906 289.160156 L 221.710938 290.691406 L 220.179688 291.996094 L 218.890625 293.097656 L 216.8125 294.832031 L 216.074219 295.445312 L 213.261719 297.664062 L 213.253906 297.667969 L 210.4375 299.730469 L 209.273438 300.5 L 207.617188 301.578125 L 204.796875 303.183594 L 204.496094 303.332031 L 201.980469 304.554688 L 199.160156 305.664062 L 197.515625 306.167969 L 196.339844 306.523438 L 193.523438 307.140625 L 190.703125 307.507812 L 187.886719 307.636719 L 185.066406 307.53125 L 182.246094 307.191406 L 179.429688 306.621094 L 177.816406 306.167969 L 176.609375 305.824219 L 173.789062 304.804688 L 170.972656 303.5625 L 170.515625 303.332031 L 168.152344 302.097656 L 165.46875 300.5 L 165.335938 300.414062 L 162.515625 298.503906 L 161.363281 297.664062 L 159.695312 296.363281 L 157.816406 294.832031 L 156.878906 293.992188 L 154.679688 291.996094 L 154.058594 291.367188 L 151.871094 289.160156 L 151.238281 288.441406 L 149.347656 286.328125 L 148.421875 285.117188 L 147.117188 283.492188 L 145.601562 281.21875 L 145.207031 280.660156 L 143.558594 277.824219 L 142.78125 276.097656 L 142.242188 274.992188 L 141.203125 272.15625 L 140.484375 269.324219 L 140.027344 266.488281 L 139.964844 265.800781 L 139.75 263.65625 L 139.652344 260.820312 L 139.6875 257.988281 L 139.8125 255.152344 L 139.964844 252.613281 L 139.980469 252.320312 L 140.132812 249.484375 L 140.265625 246.652344 L 140.355469 243.816406 L 140.382812 240.984375 L 140.332031 238.148438 L 140.1875 235.316406 L 139.964844 232.761719 L 139.933594 232.480469 L 139.496094 229.648438 L 138.902344 226.8125 L 138.15625 223.980469 L 137.246094 221.144531 L 137.144531 220.867188 L 135.910156 218.308594 L 134.328125 215.488281 L 134.316406 215.476562 L 131.980469 212.640625 L 131.507812 212.117188 L 128.785156 209.808594 L 128.6875 209.730469 L 125.871094 207.839844 L 124.5 206.972656 L 123.050781 206.078125 L 120.230469 204.179688 L 120.183594 204.140625 L 117.414062 201.890625 L 116.832031 201.304688 L 114.59375 198.996094 L 114.179688 198.472656 L 112.058594 195.636719 L 111.777344 195.242188 L 110.34375 192.804688 L 108.957031 190.28125 L 108.808594 189.96875 L 107.558594 187.136719 L 106.378906 184.300781 L 106.136719 183.6875 L 105.355469 181.46875 L 104.390625 178.632812 L 103.433594 175.800781 L 103.320312 175.464844 L 102.523438 172.964844 L 101.570312 170.132812 L 100.535156 167.296875 L 100.5 167.207031 L 99.433594 164.464844 L 98.179688 161.628906 L 97.679688 160.640625 L 96.75 158.796875 L 95.097656 155.960938 L 94.863281 155.605469 L 93.183594 153.128906 L 92.042969 151.644531 L 90.96875 150.292969 L 89.226562 148.320312 L 88.433594 147.460938 L 86.40625 145.417969 L 85.59375 144.625 L 83.585938 142.761719 L 82.519531 141.789062 L 80.769531 140.21875 L 79.355469 138.957031 L 77.949219 137.671875 L 76.28125 136.121094 L 75.128906 134.984375 L 73.472656 133.289062 L 72.3125 131.960938 L 71.054688 130.453125 L 69.492188 128.246094 L 69.074219 127.621094 L 67.53125 124.785156 L 66.675781 122.671875 "/>
<path style="fill:none;stroke-width:1.062992;stroke-linecap:butt;stroke-linejoin:round;stroke:rgb(100%,16.078431%,82.352941%);stroke-opacity:1;stroke-miterlimit:1;" d="M 83.585938 110.140625 L 83.179688 107.78125 L 82.980469 104.949219 L 83.050781 102.113281 L 83.359375 99.28125 L 83.585938 98.050781 L 83.875 96.445312 L 84.589844 93.613281 L 85.484375 90.777344 L 86.40625 88.363281 L 86.566406 87.945312 L 87.828125 85.109375 L 89.226562 82.382812 L 89.28125 82.277344 L 90.964844 79.441406 L 92.042969 77.820312 L 92.898438 76.609375 L 94.863281 74.101562 L 95.144531 73.773438 L 97.679688 71.078125 L 97.832031 70.941406 L 100.5 68.640625 L 101.238281 68.105469 L 103.320312 66.695312 L 105.957031 65.269531 L 106.136719 65.179688 L 108.957031 64.089844 L 111.777344 63.375 L 114.59375 63.011719 L 117.414062 62.980469 L 120.230469 63.265625 L 123.050781 63.824219 L 125.871094 64.617188 L 127.765625 65.269531 L 128.6875 65.601562 L 131.507812 66.703125 L 134.328125 67.828125 L 135.070312 68.105469 L 137.144531 68.894531 L 139.964844 69.789062 L 142.78125 70.433594 L 145.601562 70.75 L 148.421875 70.675781 L 151.238281 70.167969 L 154.058594 69.207031 L 156.253906 68.105469 L 156.878906 67.78125 L 159.695312 65.875 L 160.4375 65.269531 L 162.515625 63.53125 L 163.671875 62.4375 L 165.335938 60.835938 L 166.53125 59.601562 L 168.152344 57.925781 L 169.253906 56.769531 L 170.972656 54.984375 L 172.015625 53.933594 L 173.789062 52.195312 L 175.003906 51.101562 L 176.609375 49.703125 L 178.503906 48.265625 L 179.429688 47.59375 L 182.246094 45.902344 L 183.261719 45.433594 L 185.066406 44.625 L 187.886719 43.753906 L 190.703125 43.253906 L 193.523438 43.105469 L 196.339844 43.265625 L 199.160156 43.710938 L 201.980469 44.40625 L 204.796875 45.328125 L 205.066406 45.433594 L 207.617188 46.410156 L 210.4375 47.648438 L 211.699219 48.265625 L 213.253906 49.003906 L 216.074219 50.441406 L 217.289062 51.101562 L 218.890625 51.945312 L 221.710938 53.5 L 222.480469 53.933594 L 224.53125 55.074219 L 227.347656 56.691406 L 227.480469 56.769531 L 230.167969 58.308594 L 232.375 59.601562 L 232.988281 59.960938 L 235.804688 61.628906 L 237.15625 62.4375 L 238.625 63.335938 L 241.441406 65.082031 L 241.75 65.269531 L 244.261719 66.890625 L 246.109375 68.105469 L 247.082031 68.789062 L 249.898438 70.808594 L 250.078125 70.941406 L 252.71875 73.035156 L 253.617188 73.773438 L 255.539062 75.546875 L 256.640625 76.609375 L 258.355469 78.511719 L 259.15625 79.441406 L 261.175781 82.234375 L 261.203125 82.277344 L 262.867188 85.109375 L 263.992188 87.53125 L 264.179688 87.945312 L 265.230469 90.777344 L 266.058594 93.613281 L 266.710938 96.445312 L 266.8125 96.957031 L 267.257812 99.28125 L 267.722656 102.113281 L 268.136719 104.949219 L 268.53125 107.78125 L 268.933594 110.617188 L 269.355469 113.449219 L 269.632812 115.117188 L 269.824219 116.285156 L 270.351562 119.117188 L 270.933594 121.953125 L 271.558594 124.785156 L 272.230469 127.621094 L 272.449219 128.488281 L 272.960938 130.453125 L 273.730469 133.289062 L 274.511719 136.121094 L 275.269531 138.855469 L 275.300781 138.957031 L 276.125 141.789062 L 276.921875 144.625 L 277.6875 147.460938 L 278.089844 149.023438 L 278.433594 150.292969 L 279.152344 153.128906 L 279.808594 155.960938 L 280.390625 158.796875 L 280.902344 161.628906 L 280.90625 161.667969 L 281.375 164.464844 L 281.757812 167.296875 L 282.050781 170.132812 L 282.246094 172.964844 L 282.347656 175.800781 L 282.351562 178.632812 L 282.257812 181.46875 L 282.070312 184.300781 L 281.789062 187.136719 L 281.417969 189.96875 L 280.953125 192.804688 L 280.90625 193.054688 L 280.445312 195.636719 L 279.867188 198.472656 L 279.21875 201.304688 L 278.507812 204.140625 L 278.089844 205.707031 L 277.753906 206.972656 L 276.972656 209.808594 L 276.140625 212.640625 L 275.269531 215.460938 L 275.265625 215.476562 L 274.367188 218.308594 L 273.421875 221.144531 L 272.449219 223.90625 L 272.425781 223.980469 L 271.367188 226.8125 L 270.230469 229.648438 L 269.632812 231.046875 L 268.988281 232.480469 L 267.613281 235.316406 L 266.8125 236.839844 L 266.074219 238.148438 L 264.324219 240.984375 L 263.992188 241.476562 L 262.296875 243.816406 L 261.175781 245.230469 L 259.941406 246.652344 L 258.355469 248.339844 L 257.175781 249.484375 L 255.539062 250.972656 L 253.910156 252.320312 L 252.71875 253.253906 L 250.085938 255.152344 L 249.898438 255.28125 L 247.082031 257.113281 L 245.65625 257.988281 L 244.261719 258.824219 L 241.441406 260.457031 L 240.808594 260.820312 L 238.625 262.0625 L 235.851562 263.65625 L 235.804688 263.679688 L 232.988281 265.351562 L 231.152344 266.488281 L 230.167969 267.109375 L 227.347656 268.980469 L 226.859375 269.324219 L 224.53125 270.988281 L 222.976562 272.15625 L 221.710938 273.128906 L 219.378906 274.992188 L 218.890625 275.386719 L 216.074219 277.71875 L 215.945312 277.824219 L 213.253906 280.066406 L 212.523438 280.660156 L 210.4375 282.351562 L 208.941406 283.492188 L 207.617188 284.496094 L 204.964844 286.328125 L 204.796875 286.441406 L 201.980469 288.117188 L 199.882812 289.160156 L 199.160156 289.511719 L 196.339844 290.589844 L 193.523438 291.351562 L 190.703125 291.789062 L 187.886719 291.898438 L 185.066406 291.667969 L 182.246094 291.097656 L 179.429688 290.175781 L 177.183594 289.160156 L 176.609375 288.886719 L 173.789062 287.167969 L 172.644531 286.328125 L 170.972656 284.980469 L 169.378906 283.492188 L 168.152344 282.214844 L 166.820312 280.660156 L 165.335938 278.671875 L 164.75 277.824219 L 163.0625 274.992188 L 162.515625 273.90625 L 161.675781 272.15625 L 160.546875 269.324219 L 159.695312 266.683594 L 159.636719 266.488281 L 158.886719 263.65625 L 158.289062 260.820312 L 157.8125 257.988281 L 157.433594 255.152344 L 157.125 252.320312 L 156.878906 249.609375 L 156.867188 249.484375 L 156.628906 246.652344 L 156.414062 243.816406 L 156.210938 240.984375 L 156.003906 238.148438 L 155.792969 235.316406 L 155.570312 232.480469 L 155.328125 229.648438 L 155.066406 226.8125 L 154.78125 223.980469 L 154.472656 221.144531 L 154.136719 218.308594 L 154.058594 217.699219 L 153.738281 215.476562 L 153.300781 212.640625 L 152.824219 209.808594 L 152.3125 206.972656 L 151.757812 204.140625 L 151.238281 201.65625 L 151.15625 201.304688 L 150.421875 198.472656 L 149.636719 195.636719 L 148.789062 192.804688 L 148.421875 191.652344 L 147.789062 189.96875 L 146.65625 187.136719 L 145.601562 184.660156 L 145.421875 184.300781 L 143.914062 181.46875 L 142.78125 179.433594 L 142.265625 178.632812 L 140.363281 175.800781 L 139.964844 175.226562 L 138.1875 172.964844 L 137.144531 171.652344 L 135.816406 170.132812 L 134.328125 168.414062 L 133.292969 167.296875 L 131.507812 165.328125 L 130.703125 164.464844 L 128.6875 162.242188 L 128.132812 161.628906 L 125.871094 159.054688 L 125.644531 158.796875 L 123.242188 155.960938 L 123.050781 155.738281 L 120.894531 153.128906 L 120.230469 152.328125 L 118.566406 150.292969 L 117.414062 148.914062 L 116.199219 147.460938 L 114.59375 145.617188 L 113.722656 144.625 L 111.777344 142.53125 L 111.074219 141.789062 L 108.957031 139.695312 L 108.191406 138.957031 L 106.136719 137.085938 L 105.0625 136.121094 L 103.320312 134.636719 L 101.734375 133.289062 L 100.5 132.269531 L 98.332031 130.453125 L 97.679688 129.910156 L 95.046875 127.621094 L 94.863281 127.453125 L 92.058594 124.785156 L 92.042969 124.769531 L 89.492188 121.953125 L 89.226562 121.617188 L 87.386719 119.117188 L 86.40625 117.488281 L 85.734375 116.285156 L 84.511719 113.449219 L 83.675781 110.617188 L 83.585938 110.140625 "/>
<path style="fill:none;stroke-width:1.062992;stroke-linecap:butt;stroke-linejoin:round;stroke:rgb(100%,16.078431%,82.352941%);stroke-opacity:1;stroke-miterlimit:1;" d="M 100.5 106.210938 L 99.960938 104.949219 L 99.171875 102.113281 L 98.8125 99.28125 L 98.855469 96.445312 L 99.28125 93.613281 L 100.074219 90.777344 L 100.5 89.734375 L 101.328125 87.945312 L 103.054688 85.109375 L 103.320312 84.757812 L 105.582031 82.277344 L 106.136719 81.761719 L 108.957031 79.785156 L 109.683594 79.441406 L 111.777344 78.585938 L 114.59375 77.984375 L 117.414062 77.894531 L 120.230469 78.257812 L 123.050781 78.980469 L 124.367188 79.441406 L 125.871094 80.007812 L 128.6875 81.210938 L 131.15625 82.277344 L 131.507812 82.433594 L 134.328125 83.605469 L 137.144531 84.550781 L 139.488281 85.109375 L 139.964844 85.222656 L 142.78125 85.589844 L 145.601562 85.613281 L 148.421875 85.289062 L 149.15625 85.109375 L 151.238281 84.621094 L 154.058594 83.605469 L 156.800781 82.277344 L 156.878906 82.238281 L 159.695312 80.507812 L 161.148438 79.441406 L 162.515625 78.425781 L 164.648438 76.609375 L 165.335938 76.011719 L 167.679688 73.773438 L 168.152344 73.3125 L 170.464844 70.941406 L 170.972656 70.414062 L 173.167969 68.105469 L 173.789062 67.453125 L 175.929688 65.269531 L 176.609375 64.585938 L 178.917969 62.4375 L 179.429688 61.972656 L 182.246094 59.730469 L 182.4375 59.601562 L 185.066406 57.914062 L 187.417969 56.769531 L 187.886719 56.550781 L 190.703125 55.613281 L 193.523438 55.085938 L 196.339844 54.921875 L 199.160156 55.082031 L 201.980469 55.519531 L 204.796875 56.207031 L 206.558594 56.769531 L 207.617188 57.09375 L 210.4375 58.148438 L 213.253906 59.355469 L 213.769531 59.601562 L 216.074219 60.675781 L 218.890625 62.109375 L 219.496094 62.4375 L 221.710938 63.632812 L 224.53125 65.25 L 224.5625 65.269531 L 227.347656 66.953125 L 229.160156 68.105469 L 230.167969 68.761719 L 232.988281 70.675781 L 233.363281 70.941406 L 235.804688 72.722656 L 237.1875 73.773438 L 238.625 74.933594 L 240.621094 76.609375 L 241.441406 77.355469 L 243.664062 79.441406 L 244.261719 80.0625 L 246.328125 82.277344 L 247.082031 83.183594 L 248.632812 85.109375 L 249.898438 86.925781 L 250.59375 87.945312 L 252.257812 90.777344 L 252.71875 91.679688 L 253.679688 93.613281 L 254.890625 96.445312 L 255.539062 98.191406 L 255.933594 99.28125 L 256.867188 102.113281 L 257.707031 104.949219 L 258.355469 107.289062 L 258.492188 107.78125 L 259.265625 110.617188 L 260.03125 113.449219 L 260.804688 116.285156 L 261.175781 117.578125 L 261.609375 119.117188 L 262.453125 121.953125 L 263.324219 124.785156 L 263.992188 126.882812 L 264.226562 127.621094 L 265.164062 130.453125 L 266.113281 133.289062 L 266.8125 135.371094 L 267.0625 136.121094 L 268.019531 138.957031 L 268.949219 141.789062 L 269.632812 143.949219 L 269.847656 144.625 L 270.71875 147.460938 L 271.527344 150.292969 L 272.265625 153.128906 L 272.449219 153.90625 L 272.953125 155.960938 L 273.5625 158.796875 L 274.082031 161.628906 L 274.507812 164.464844 L 274.839844 167.296875 L 275.074219 170.132812 L 275.207031 172.964844 L 275.238281 175.800781 L 275.164062 178.632812 L 274.988281 181.46875 L 274.707031 184.300781 L 274.320312 187.136719 L 273.828125 189.96875 L 273.234375 192.804688 L 272.539062 195.636719 L 272.449219 195.960938 L 271.757812 198.472656 L 270.882812 201.304688 L 269.921875 204.140625 L 269.632812 204.953125 L 268.871094 206.972656 L 267.742188 209.808594 L 266.8125 212.015625 L 266.53125 212.640625 L 265.21875 215.476562 L 263.992188 218.007812 L 263.832031 218.308594 L 262.316406 221.144531 L 261.175781 223.195312 L 260.695312 223.980469 L 258.910156 226.8125 L 258.355469 227.671875 L 256.929688 229.648438 L 255.539062 231.507812 L 254.722656 232.480469 L 252.71875 234.785156 L 252.203125 235.316406 L 249.898438 237.59375 L 249.273438 238.148438 L 247.082031 240.023438 L 245.832031 240.984375 L 244.261719 242.152344 L 241.820312 243.816406 L 241.441406 244.066406 L 238.625 245.816406 L 237.214844 246.652344 L 235.804688 247.46875 L 232.988281 249.082031 L 232.285156 249.484375 L 230.167969 250.695312 L 227.410156 252.320312 L 227.347656 252.355469 L 224.53125 254.085938 L 222.882812 255.152344 L 221.710938 255.917969 L 218.890625 257.863281 L 218.714844 257.988281 L 216.074219 259.902344 L 214.839844 260.820312 L 213.253906 262.019531 L 211.101562 263.65625 L 210.4375 264.167969 L 207.617188 266.285156 L 207.328125 266.488281 L 204.796875 268.285156 L 203.179688 269.324219 L 201.980469 270.09375 L 199.160156 271.628906 L 197.921875 272.15625 L 196.339844 272.824219 L 193.523438 273.621094 L 190.703125 273.984375 L 187.886719 273.859375 L 185.066406 273.199219 L 182.699219 272.15625 L 182.246094 271.941406 L 179.429688 269.945312 L 178.777344 269.324219 L 176.609375 267.027344 L 176.203125 266.488281 L 174.300781 263.65625 L 173.789062 262.796875 L 172.796875 260.820312 L 171.558594 257.988281 L 170.972656 256.457031 L 170.527344 255.152344 L 169.667969 252.320312 L 168.914062 249.484375 L 168.25 246.652344 L 168.152344 246.199219 L 167.675781 243.816406 L 167.15625 240.984375 L 166.683594 238.148438 L 166.246094 235.316406 L 165.835938 232.480469 L 165.449219 229.648438 L 165.335938 228.773438 L 165.078125 226.8125 L 164.71875 223.980469 L 164.367188 221.144531 L 164.019531 218.308594 L 163.675781 215.476562 L 163.328125 212.640625 L 162.976562 209.808594 L 162.613281 206.972656 L 162.515625 206.230469 L 162.226562 204.140625 L 161.816406 201.304688 L 161.378906 198.472656 L 160.914062 195.636719 L 160.410156 192.804688 L 159.859375 189.96875 L 159.695312 189.195312 L 159.226562 187.136719 L 158.515625 184.300781 L 157.722656 181.46875 L 156.878906 178.75 L 156.839844 178.632812 L 155.789062 175.800781 L 154.625 172.964844 L 154.058594 171.699219 L 153.292969 170.132812 L 151.800781 167.296875 L 151.238281 166.304688 L 150.113281 164.464844 L 148.421875 161.828125 L 148.285156 161.628906 L 146.257812 158.796875 L 145.601562 157.894531 L 144.109375 155.960938 L 142.78125 154.242188 L 141.886719 153.128906 L 139.964844 150.703125 L 139.628906 150.292969 L 137.363281 147.460938 L 137.144531 147.179688 L 135.113281 144.625 L 134.328125 143.59375 L 132.90625 141.789062 L 131.507812 139.953125 L 130.722656 138.957031 L 128.6875 136.308594 L 128.539062 136.121094 L 126.28125 133.289062 L 125.871094 132.765625 L 123.898438 130.453125 L 123.050781 129.460938 L 121.328125 127.621094 L 120.230469 126.464844 L 118.484375 124.785156 L 117.414062 123.773438 L 115.324219 121.953125 L 114.59375 121.320312 L 111.925781 119.117188 L 111.777344 118.992188 L 108.957031 116.625 L 108.566406 116.285156 L 106.136719 114.027344 L 105.5625 113.449219 L 103.320312 110.894531 L 103.101562 110.617188 L 101.265625 107.78125 L 100.5 106.210938 "/>
<path style="fill:none;stroke-width:1.062992;stroke-linecap:butt;stroke-linejoin:round;stroke:rgb(100%,16.078431%,82.352941%);stroke-opacity:1;stroke-miterlimit:1;" d="M 139.964844 125.03125 L 139.863281 124.785156 L 138.953125 121.953125 L 138.28125 119.117188 L 137.917969 116.285156 L 137.96875 113.449219 L 138.640625 110.617188 L 139.964844 108.316406 L 140.296875 107.78125 L 142.78125 105.363281 L 143.226562 104.949219 L 145.601562 103.324219 L 147.335938 102.113281 L 148.421875 101.503906 L 151.238281 99.761719 L 151.929688 99.28125 L 154.058594 97.976562 L 156.273438 96.445312 L 156.878906 96.0625 L 159.695312 94 L 160.167969 93.613281 L 162.515625 91.757812 L 163.625 90.777344 L 165.335938 89.308594 L 166.785156 87.945312 L 168.152344 86.671875 L 169.722656 85.109375 L 170.972656 83.871094 L 172.523438 82.277344 L 173.789062 80.972656 L 175.277344 79.441406 L 176.609375 78.074219 L 178.085938 76.609375 L 179.429688 75.285156 L 181.089844 73.773438 L 182.246094 72.734375 L 184.527344 70.941406 L 185.066406 70.523438 L 187.886719 68.714844 L 189.109375 68.105469 L 190.703125 67.335938 L 193.523438 66.382812 L 196.339844 65.832031 L 199.160156 65.644531 L 201.980469 65.78125 L 204.796875 66.195312 L 207.617188 66.863281 L 210.4375 67.75 L 211.355469 68.105469 L 213.253906 68.828125 L 216.074219 70.085938 L 217.761719 70.941406 L 218.890625 71.511719 L 221.710938 73.109375 L 222.785156 73.773438 L 224.53125 74.878906 L 227.027344 76.609375 L 227.347656 76.839844 L 230.167969 79.019531 L 230.683594 79.441406 L 232.988281 81.464844 L 233.859375 82.277344 L 235.804688 84.238281 L 236.628906 85.109375 L 238.625 87.441406 L 239.039062 87.945312 L 241.132812 90.777344 L 241.441406 91.246094 L 242.964844 93.613281 L 244.261719 95.90625 L 244.5625 96.445312 L 245.980469 99.28125 L 247.082031 101.738281 L 247.246094 102.113281 L 248.414062 104.949219 L 249.492188 107.78125 L 249.898438 108.882812 L 250.53125 110.617188 L 251.550781 113.449219 L 252.558594 116.285156 L 252.71875 116.71875 L 253.589844 119.117188 L 254.636719 121.953125 L 255.539062 124.324219 L 255.710938 124.785156 L 256.8125 127.621094 L 257.929688 130.453125 L 258.355469 131.511719 L 259.058594 133.289062 L 260.183594 136.121094 L 261.175781 138.652344 L 261.292969 138.957031 L 262.371094 141.789062 L 263.398438 144.625 L 263.992188 146.34375 L 264.375 147.460938 L 265.277344 150.292969 L 266.101562 153.128906 L 266.8125 155.871094 L 266.835938 155.960938 L 267.480469 158.796875 L 268.019531 161.628906 L 268.453125 164.464844 L 268.769531 167.296875 L 268.972656 170.132812 L 269.054688 172.964844 L 269.015625 175.800781 L 268.851562 178.632812 L 268.558594 181.46875 L 268.136719 184.300781 L 267.582031 187.136719 L 266.894531 189.96875 L 266.8125 190.261719 L 266.058594 192.804688 L 265.089844 195.636719 L 263.992188 198.449219 L 263.984375 198.472656 L 262.699219 201.304688 L 261.285156 204.140625 L 261.175781 204.347656 L 259.65625 206.972656 L 258.355469 209.097656 L 257.863281 209.808594 L 255.847656 212.640625 L 255.539062 213.070312 L 253.546875 215.476562 L 252.71875 216.472656 L 250.945312 218.308594 L 249.898438 219.402344 L 247.957031 221.144531 L 247.082031 221.945312 L 244.5 223.980469 L 244.261719 224.167969 L 241.441406 226.152344 L 240.382812 226.8125 L 238.625 227.9375 L 235.804688 229.578125 L 235.683594 229.648438 L 232.988281 231.15625 L 230.5625 232.480469 L 230.167969 232.699219 L 227.347656 234.269531 L 225.527344 235.316406 L 224.53125 235.894531 L 221.710938 237.59375 L 220.832031 238.148438 L 218.890625 239.378906 L 216.453125 240.984375 L 216.074219 241.230469 L 213.253906 243.125 L 212.222656 243.816406 L 210.4375 245.019531 L 207.929688 246.652344 L 207.617188 246.859375 L 204.796875 248.570312 L 203.082031 249.484375 L 201.980469 250.082031 L 199.160156 251.300781 L 196.339844 252.140625 L 194.859375 252.320312 L 193.523438 252.488281 L 191.644531 252.320312 L 190.703125 252.230469 L 187.886719 251.230469 L 185.304688 249.484375 L 185.066406 249.3125 L 182.640625 246.652344 L 182.246094 246.179688 L 180.777344 243.816406 L 179.429688 241.382812 L 179.25 240.984375 L 178.078125 238.148438 L 177.035156 235.316406 L 176.609375 234.050781 L 176.15625 232.480469 L 175.402344 229.648438 L 174.722656 226.8125 L 174.105469 223.980469 L 173.789062 222.398438 L 173.558594 221.144531 L 173.078125 218.308594 L 172.628906 215.476562 L 172.210938 212.640625 L 171.816406 209.808594 L 171.4375 206.972656 L 171.074219 204.140625 L 170.972656 203.316406 L 170.722656 201.304688 L 170.371094 198.472656 L 170.011719 195.636719 L 169.628906 192.804688 L 169.222656 189.96875 L 168.777344 187.136719 L 168.28125 184.300781 L 168.152344 183.648438 L 167.71875 181.46875 L 167.082031 178.632812 L 166.359375 175.800781 L 165.535156 172.964844 L 165.335938 172.347656 L 164.585938 170.132812 L 163.515625 167.296875 L 162.515625 164.914062 L 162.316406 164.464844 L 160.964844 161.628906 L 159.695312 159.175781 L 159.488281 158.796875 L 157.867188 155.960938 L 156.878906 154.300781 L 156.140625 153.128906 L 154.324219 150.292969 L 154.058594 149.875 L 152.441406 147.460938 L 151.238281 145.628906 L 150.554688 144.625 L 148.695312 141.789062 L 148.421875 141.34375 L 146.894531 138.957031 L 145.601562 136.765625 L 145.207031 136.121094 L 143.636719 133.289062 L 142.78125 131.546875 L 142.214844 130.453125 L 140.949219 127.621094 L 139.964844 125.03125 "/>
<path style="fill:none;stroke-width:1.062992;stroke-linecap:butt;stroke-linejoin:round;stroke:rgb(100%,16.078431%,82.352941%);stroke-opacity:1;stroke-miterlimit:1;" d="M 156.878906 129.179688 L 156.496094 127.621094 L 156.109375 124.785156 L 156.070312 121.953125 L 156.417969 119.117188 L 156.878906 117.417969 L 157.175781 116.285156 L 158.339844 113.449219 L 159.695312 111.066406 L 159.9375 110.617188 L 161.847656 107.78125 L 162.515625 106.949219 L 164.011719 104.949219 L 165.335938 103.394531 L 166.351562 102.113281 L 168.152344 100.054688 L 168.789062 99.28125 L 170.972656 96.808594 L 171.277344 96.445312 L 173.789062 93.625 L 173.804688 93.613281 L 176.375 90.777344 L 176.609375 90.527344 L 179.050781 87.945312 L 179.429688 87.554688 L 181.90625 85.109375 L 182.246094 84.78125 L 185.066406 82.292969 L 185.089844 82.277344 L 187.886719 80.152344 L 189.015625 79.441406 L 190.703125 78.410156 L 193.523438 77.089844 L 195 76.609375 L 196.339844 76.179688 L 199.160156 75.664062 L 201.980469 75.511719 L 204.796875 75.691406 L 207.617188 76.175781 L 209.203125 76.609375 L 210.4375 76.9375 L 213.253906 77.964844 L 216.074219 79.242188 L 216.449219 79.441406 L 218.890625 80.78125 L 221.242188 82.277344 L 221.710938 82.585938 L 224.53125 84.691406 L 225.035156 85.109375 L 227.347656 87.152344 L 228.167969 87.945312 L 230.167969 90.03125 L 230.832031 90.777344 L 232.988281 93.441406 L 233.117188 93.613281 L 235.101562 96.445312 L 235.804688 97.558594 L 236.847656 99.28125 L 238.40625 102.113281 L 238.625 102.542969 L 239.820312 104.949219 L 241.121094 107.78125 L 241.441406 108.507812 L 242.355469 110.617188 L 243.542969 113.449219 L 244.261719 115.183594 L 244.710938 116.285156 L 245.882812 119.117188 L 247.070312 121.953125 L 247.082031 121.976562 L 248.28125 124.785156 L 249.523438 127.621094 L 249.898438 128.449219 L 250.789062 130.453125 L 252.066406 133.289062 L 252.71875 134.707031 L 253.347656 136.121094 L 254.609375 138.957031 L 255.539062 141.074219 L 255.839844 141.789062 L 257.007812 144.625 L 258.117188 147.460938 L 258.355469 148.105469 L 259.132812 150.292969 L 260.050781 153.128906 L 260.867188 155.960938 L 261.175781 157.199219 L 261.5625 158.796875 L 262.128906 161.628906 L 262.566406 164.464844 L 262.867188 167.296875 L 263.03125 170.132812 L 263.046875 172.964844 L 262.910156 175.800781 L 262.613281 178.632812 L 262.152344 181.46875 L 261.523438 184.300781 L 261.175781 185.550781 L 260.695312 187.136719 L 259.660156 189.96875 L 258.4375 192.804688 L 258.355469 192.96875 L 256.910156 195.636719 L 255.539062 197.902344 L 255.136719 198.472656 L 252.996094 201.304688 L 252.71875 201.65625 L 250.386719 204.140625 L 249.898438 204.644531 L 247.1875 206.972656 L 247.082031 207.066406 L 244.261719 209.070312 L 242.992188 209.808594 L 241.441406 210.738281 L 238.625 212.140625 L 237.433594 212.640625 L 235.804688 213.367188 L 232.988281 214.476562 L 230.277344 215.476562 L 230.167969 215.519531 L 227.347656 216.597656 L 224.53125 217.722656 L 223.144531 218.308594 L 221.710938 218.960938 L 218.890625 220.332031 L 217.332031 221.144531 L 216.074219 221.832031 L 213.253906 223.4375 L 212.308594 223.980469 L 210.4375 225.082031 L 207.617188 226.671875 L 207.335938 226.8125 L 204.796875 228.097656 L 201.980469 229.246094 L 200.4375 229.648438 L 199.160156 229.980469 L 196.339844 230.15625 L 193.757812 229.648438 L 193.523438 229.597656 L 190.703125 228.039062 L 189.4375 226.8125 L 187.886719 225.128906 L 187.152344 223.980469 L 185.554688 221.144531 L 185.066406 220.15625 L 184.355469 218.308594 L 183.390625 215.476562 L 182.550781 212.640625 L 182.246094 211.492188 L 181.871094 209.808594 L 181.308594 206.972656 L 180.800781 204.140625 L 180.34375 201.304688 L 179.921875 198.472656 L 179.519531 195.636719 L 179.429688 194.964844 L 179.15625 192.804688 L 178.789062 189.96875 L 178.398438 187.136719 L 177.976562 184.300781 L 177.503906 181.46875 L 176.964844 178.632812 L 176.609375 176.988281 L 176.359375 175.800781 L 175.671875 172.964844 L 174.882812 170.132812 L 173.984375 167.296875 L 173.789062 166.746094 L 172.984375 164.464844 L 171.871094 161.628906 L 170.972656 159.527344 L 170.652344 158.796875 L 169.335938 155.960938 L 168.152344 153.550781 L 167.9375 153.128906 L 166.46875 150.292969 L 165.335938 148.136719 L 164.964844 147.460938 L 163.445312 144.625 L 162.515625 142.824219 L 161.960938 141.789062 L 160.539062 138.957031 L 159.695312 137.085938 L 159.242188 136.121094 L 158.097656 133.289062 L 157.171875 130.453125 L 156.878906 129.179688 "/>
<path style="fill:none;stroke-width:1.062992;stroke-linecap:butt;stroke-linejoin:round;stroke:rgb(100%,16.078431%,82.352941%);stroke-opacity:1;stroke-miterlimit:1;" d="M 170.972656 134.941406 L 170.441406 133.289062 L 169.75 130.453125 L 169.304688 127.621094 L 169.132812 124.785156 L 169.25 121.953125 L 169.679688 119.117188 L 170.417969 116.285156 L 170.972656 114.789062 L 171.449219 113.449219 L 172.742188 110.617188 L 173.789062 108.722656 L 174.296875 107.78125 L 176.0625 104.949219 L 176.609375 104.167969 L 178.039062 102.113281 L 179.429688 100.300781 L 180.226562 99.28125 L 182.246094 96.894531 L 182.648438 96.445312 L 185.066406 93.914062 L 185.382812 93.613281 L 187.886719 91.355469 L 188.625 90.777344 L 190.703125 89.230469 L 192.832031 87.945312 L 193.523438 87.542969 L 196.339844 86.308594 L 199.160156 85.5 L 201.914062 85.109375 L 201.980469 85.101562 L 204.796875 85.097656 L 204.898438 85.109375 L 207.617188 85.464844 L 210.4375 86.191406 L 213.253906 87.261719 L 214.621094 87.945312 L 216.074219 88.699219 L 218.890625 90.511719 L 219.246094 90.777344 L 221.710938 92.765625 L 222.625 93.613281 L 224.53125 95.515625 L 225.363281 96.445312 L 227.347656 98.867188 L 227.660156 99.28125 L 229.617188 102.113281 L 230.167969 102.984375 L 231.339844 104.949219 L 232.894531 107.78125 L 232.988281 107.960938 L 234.308594 110.617188 L 235.648438 113.449219 L 235.804688 113.792969 L 236.921875 116.285156 L 238.183594 119.117188 L 238.625 120.097656 L 239.441406 121.953125 L 240.71875 124.785156 L 241.441406 126.34375 L 242.027344 127.621094 L 243.367188 130.453125 L 244.261719 132.28125 L 244.742188 133.289062 L 246.128906 136.121094 L 247.082031 138.03125 L 247.527344 138.957031 L 248.886719 141.789062 L 249.898438 143.925781 L 250.214844 144.625 L 251.449219 147.460938 L 252.613281 150.292969 L 252.71875 150.566406 L 253.632812 153.128906 L 254.535156 155.960938 L 255.308594 158.796875 L 255.539062 159.839844 L 255.910156 161.628906 L 256.34375 164.464844 L 256.609375 167.296875 L 256.695312 170.132812 L 256.59375 172.964844 L 256.289062 175.800781 L 255.773438 178.632812 L 255.539062 179.550781 L 254.980469 181.46875 L 253.90625 184.300781 L 252.71875 186.828125 L 252.546875 187.136719 L 250.710938 189.96875 L 249.898438 191.070312 L 248.328125 192.804688 L 247.082031 194.066406 L 245.121094 195.636719 L 244.261719 196.292969 L 241.441406 197.960938 L 240.308594 198.472656 L 238.625 199.226562 L 235.804688 200.175781 L 232.988281 200.890625 L 230.820312 201.304688 L 230.167969 201.4375 L 227.347656 201.878906 L 224.53125 202.253906 L 221.710938 202.609375 L 218.890625 202.972656 L 216.074219 203.367188 L 213.253906 203.78125 L 210.703125 204.140625 L 210.4375 204.183594 L 207.617188 204.488281 L 204.796875 204.558594 L 201.980469 204.175781 L 201.886719 204.140625 L 199.160156 202.960938 L 197.242188 201.304688 L 196.339844 200.371094 L 195.136719 198.472656 L 193.644531 195.636719 L 193.523438 195.371094 L 192.605469 192.804688 L 191.699219 189.96875 L 190.863281 187.136719 L 190.703125 186.589844 L 190.132812 184.300781 L 189.40625 181.46875 L 188.644531 178.632812 L 187.886719 176 L 187.832031 175.800781 L 187 172.964844 L 186.082031 170.132812 L 185.066406 167.296875 L 185.066406 167.292969 L 184.003906 164.464844 L 182.839844 161.628906 L 182.246094 160.292969 L 181.605469 158.796875 L 180.308594 155.960938 L 179.429688 154.113281 L 178.964844 153.128906 L 177.597656 150.292969 L 176.609375 148.253906 L 176.226562 147.460938 L 174.878906 144.625 L 173.789062 142.214844 L 173.597656 141.789062 L 172.398438 138.957031 L 171.339844 136.121094 L 170.972656 134.941406 "/>
<path style="fill:none;stroke-width:1.062992;stroke-linecap:butt;stroke-linejoin:round;stroke:rgb(100%,16.078431%,82.352941%);stroke-opacity:1;stroke-miterlimit:1;" d="M 182.246094 135.992188 L 181.40625 133.289062 L 180.738281 130.453125 L 180.308594 127.621094 L 180.140625 124.785156 L 180.246094 121.953125 L 180.640625 119.117188 L 181.332031 116.285156 L 182.246094 113.636719 L 182.3125 113.449219 L 183.617188 110.617188 L 185.066406 108.042969 L 185.222656 107.78125 L 187.21875 104.949219 L 187.886719 104.121094 L 189.6875 102.113281 L 190.703125 101.097656 L 192.859375 99.28125 L 193.523438 98.769531 L 196.339844 97.058594 L 197.769531 96.445312 L 199.160156 95.890625 L 201.980469 95.25 L 204.796875 95.097656 L 207.617188 95.414062 L 210.4375 96.199219 L 210.996094 96.445312 L 213.253906 97.5 L 216.050781 99.28125 L 216.074219 99.296875 L 218.890625 101.722656 L 219.277344 102.113281 L 221.710938 104.832031 L 221.800781 104.949219 L 223.84375 107.78125 L 224.53125 108.8125 L 225.617188 110.617188 L 227.210938 113.449219 L 227.347656 113.707031 L 228.628906 116.285156 L 229.996094 119.117188 L 230.167969 119.484375 L 231.28125 121.953125 L 232.574219 124.785156 L 232.988281 125.671875 L 233.863281 127.621094 L 235.191406 130.453125 L 235.804688 131.71875 L 236.550781 133.289062 L 237.953125 136.121094 L 238.625 137.421875 L 239.390625 138.957031 L 240.839844 141.789062 L 241.441406 142.960938 L 242.261719 144.625 L 243.640625 147.460938 L 244.261719 148.785156 L 244.921875 150.292969 L 246.070312 153.128906 L 247.082031 155.878906 L 247.109375 155.960938 L 247.898438 158.796875 L 248.515625 161.628906 L 248.921875 164.464844 L 249.089844 167.296875 L 248.980469 170.132812 L 248.566406 172.964844 L 247.820312 175.800781 L 247.082031 177.710938 L 246.632812 178.632812 L 244.816406 181.46875 L 244.261719 182.171875 L 242.027344 184.300781 L 241.441406 184.78125 L 238.625 186.4375 L 236.800781 187.136719 L 235.804688 187.488281 L 232.988281 188.070312 L 230.167969 188.304688 L 227.347656 188.25 L 224.53125 187.945312 L 221.710938 187.40625 L 220.671875 187.136719 L 218.890625 186.625 L 216.074219 185.566406 L 213.480469 184.300781 L 213.253906 184.179688 L 210.4375 182.332031 L 209.371094 181.46875 L 207.617188 179.886719 L 206.453125 178.632812 L 204.796875 176.691406 L 204.144531 175.800781 L 202.164062 172.964844 L 201.980469 172.699219 L 200.398438 170.132812 L 199.160156 168.117188 L 198.703125 167.296875 L 197.066406 164.464844 L 196.339844 163.257812 L 195.4375 161.628906 L 193.800781 158.796875 L 193.523438 158.335938 L 192.183594 155.960938 L 190.703125 153.40625 L 190.550781 153.128906 L 188.972656 150.292969 L 187.886719 148.328125 L 187.425781 147.460938 L 185.964844 144.625 L 185.066406 142.785156 L 184.597656 141.789062 L 183.367188 138.957031 L 182.289062 136.121094 L 182.246094 135.992188 "/>
<path style="fill:none;stroke-width:1.062992;stroke-linecap:butt;stroke-linejoin:round;stroke:rgb(100%,16.078431%,82.352941%);stroke-opacity:1;stroke-miterlimit:1;" d="M 193.523438 134.375 L 193.113281 133.289062 L 192.300781 130.453125 L 191.777344 127.621094 L 191.578125 124.785156 L 191.746094 121.953125 L 192.308594 119.117188 L 193.285156 116.285156 L 193.523438 115.800781 L 194.925781 113.449219 L 196.339844 111.648438 L 197.433594 110.617188 L 199.160156 109.289062 L 201.980469 107.957031 L 202.984375 107.78125 L 204.796875 107.511719 L 207.34375 107.78125 L 207.617188 107.816406 L 210.4375 108.929688 L 213.011719 110.617188 L 213.253906 110.796875 L 215.90625 113.449219 L 216.074219 113.640625 L 217.988281 116.285156 L 218.890625 117.65625 L 219.722656 119.117188 L 221.222656 121.953125 L 221.710938 122.9375 L 222.539062 124.785156 L 223.773438 127.621094 L 224.53125 129.371094 L 224.96875 130.453125 L 226.113281 133.289062 L 227.34375 136.121094 L 227.347656 136.136719 L 228.503906 138.957031 L 229.785156 141.789062 L 230.167969 142.621094 L 231.042969 144.625 L 232.34375 147.460938 L 232.988281 148.863281 L 233.589844 150.292969 L 234.710938 153.128906 L 235.746094 155.960938 L 235.804688 156.195312 L 236.390625 158.796875 L 236.699219 161.628906 L 236.539062 164.464844 L 235.804688 167.035156 L 235.679688 167.296875 L 232.988281 170.105469 L 232.925781 170.132812 L 230.167969 170.90625 L 227.347656 170.785156 L 225.035156 170.132812 L 224.53125 169.972656 L 221.710938 168.511719 L 219.902344 167.296875 L 218.890625 166.578125 L 216.386719 164.464844 L 216.074219 164.195312 L 213.445312 161.628906 L 213.253906 161.445312 L 210.773438 158.796875 L 210.4375 158.445312 L 208.242188 155.960938 L 207.617188 155.285156 L 205.800781 153.128906 L 204.796875 151.984375 L 203.453125 150.292969 L 201.980469 148.496094 L 201.214844 147.460938 L 199.160156 144.691406 L 199.117188 144.625 L 197.292969 141.789062 L 196.339844 140.234375 L 195.640625 138.957031 L 194.25 136.121094 L 193.523438 134.375 "/>
<g clip-path="url(#e47ae435-33a8-4de2-9ef9-fb574c9179fc)" clip-rule="nonzero">
<path style="fill:none;stroke-width:1.062992;stroke-linecap:round;stroke-linejoin:round;stroke:rgb(49.803922%,49.803922%,49.803922%);stroke-opacity:1;stroke-miterlimit:10;" d="M 38.625 323.027344 L 345.597656 323.027344 L 345.597656 14.398438 L 38.625 14.398438 Z "/>
</g>
<g style="fill:rgb(0%,0%,0%);fill-opacity:1;">
  <use xlink:href="#11ca787a-6fa7-49f6-9de7-a0d91cf0c462" x="23.007812" y="312.4375"/>
  <use xlink:href="#43dccd7c-9079-41a4-b017-641b8acf3913" x="26.202606" y="312.4375"/>
</g>
<g style="fill:rgb(0%,0%,0%);fill-opacity:1;">
  <use xlink:href="#11ca787a-6fa7-49f6-9de7-a0d91cf0c462" x="23.007812" y="242.296875"/>
  <use xlink:href="#a9f09df4-cab5-484f-8dfb-68965b5b31d5" x="26.202606" y="242.296875"/>
</g>
<g style="fill:rgb(0%,0%,0%);fill-opacity:1;">
  <use xlink:href="#3de09881-83f4-4c89-84fa-e8d463bb6f77" x="26.203125" y="172.152344"/>
</g>
<g style="fill:rgb(0%,0%,0%);fill-opacity:1;">
  <use xlink:href="#a9f09df4-cab5-484f-8dfb-68965b5b31d5" x="26.203125" y="102.007812"/>
</g>
<g style="fill:rgb(0%,0%,0%);fill-opacity:1;">
  <use xlink:href="#43dccd7c-9079-41a4-b017-641b8acf3913" x="26.203125" y="31.867188"/>
</g>
<path style="fill:none;stroke-width:1.062992;stroke-linecap:butt;stroke-linejoin:round;stroke:rgb(0%,0%,0%);stroke-opacity:1;stroke-miterlimit:10;" d="M 34.375 309 L 38.625 309 "/>
<path style="fill:none;stroke-width:1.062992;stroke-linecap:butt;stroke-linejoin:round;stroke:rgb(0%,0%,0%);stroke-opacity:1;stroke-miterlimit:10;" d="M 34.375 238.859375 L 38.625 238.859375 "/>
<path style="fill:none;stroke-width:1.062992;stroke-linecap:butt;stroke-linejoin:round;stroke:rgb(0%,0%,0%);stroke-opacity:1;stroke-miterlimit:10;" d="M 34.375 168.714844 L 38.625 168.714844 "/>
<path style="fill:none;stroke-width:1.062992;stroke-linecap:butt;stroke-linejoin:round;stroke:rgb(0%,0%,0%);stroke-opacity:1;stroke-miterlimit:10;" d="M 34.375 98.570312 L 38.625 98.570312 "/>
<path style="fill:none;stroke-width:1.062992;stroke-linecap:butt;stroke-linejoin:round;stroke:rgb(0%,0%,0%);stroke-opacity:1;stroke-miterlimit:10;" d="M 34.375 28.429688 L 38.625 28.429688 "/>
<path style="fill:none;stroke-width:1.062992;stroke-linecap:butt;stroke-linejoin:round;stroke:rgb(0%,0%,0%);stroke-opacity:1;stroke-miterlimit:10;" d="M 52.578125 327.28125 L 52.578125 323.027344 "/>
<path style="fill:none;stroke-width:1.062992;stroke-linecap:butt;stroke-linejoin:round;stroke:rgb(0%,0%,0%);stroke-opacity:1;stroke-miterlimit:10;" d="M 122.347656 327.28125 L 122.347656 323.027344 "/>
<path style="fill:none;stroke-width:1.062992;stroke-linecap:butt;stroke-linejoin:round;stroke:rgb(0%,0%,0%);stroke-opacity:1;stroke-miterlimit:10;" d="M 192.113281 327.28125 L 192.113281 323.027344 "/>
<path style="fill:none;stroke-width:1.062992;stroke-linecap:butt;stroke-linejoin:round;stroke:rgb(0%,0%,0%);stroke-opacity:1;stroke-miterlimit:10;" d="M 261.878906 327.28125 L 261.878906 323.027344 "/>
<path style="fill:none;stroke-width:1.062992;stroke-linecap:butt;stroke-linejoin:round;stroke:rgb(0%,0%,0%);stroke-opacity:1;stroke-miterlimit:10;" d="M 331.648438 327.28125 L 331.648438 323.027344 "/>
<g style="fill:rgb(0%,0%,0%);fill-opacity:1;">
  <use xlink:href="#11ca787a-6fa7-49f6-9de7-a0d91cf0c462" x="48.3125" y="336.992188"/>
  <use xlink:href="#43dccd7c-9079-41a4-b017-641b8acf3913" x="51.507294" y="336.992188"/>
</g>
<g style="fill:rgb(0%,0%,0%);fill-opacity:1;">
  <use xlink:href="#11ca787a-6fa7-49f6-9de7-a0d91cf0c462" x="118.082031" y="336.992188"/>
  <use xlink:href="#a9f09df4-cab5-484f-8dfb-68965b5b31d5" x="121.276825" y="336.992188"/>
</g>
<g style="fill:rgb(0%,0%,0%);fill-opacity:1;">
  <use xlink:href="#3de09881-83f4-4c89-84fa-e8d463bb6f77" x="189.445312" y="336.992188"/>
</g>
<g style="fill:rgb(0%,0%,0%);fill-opacity:1;">
  <use xlink:href="#a9f09df4-cab5-484f-8dfb-68965b5b31d5" x="259.210938" y="336.992188"/>
</g>
<g style="fill:rgb(0%,0%,0%);fill-opacity:1;">
  <use xlink:href="#43dccd7c-9079-41a4-b017-641b8acf3913" x="328.980469" y="336.992188"/>
</g>
<g style="fill:rgb(0%,0%,0%);fill-opacity:1;">
  <use xlink:href="#74ce8f4e-38f1-40f6-a137-32af4266482e" x="185.441406" y="349.199219"/>
  <use xlink:href="#f93f7c71-4cb5-43aa-b668-0a4ad466fb3f" x="192.115234" y="349.199219"/>
</g>
<g style="fill:rgb(0%,0%,0%);fill-opacity:1;">
  <use xlink:href="#12e05140-39a8-46e2-bf69-5f412deb0674" x="19.410156" y="175.386719"/>
  <use xlink:href="#32eed4aa-55b8-43e5-9735-8f9460fddd4d" x="19.410156" y="168.712891"/>
</g>
</g>
</svg>
